<svg xmlns="http://www.w3.org/2000/svg" xmlns:xlink="http://www.w3.org/1999/xlink" viewBox="0 0 478.33 419.15"><defs><style>.cls-1,.cls-35{fill:none;}.cls-2{isolation:isolate;}.cls-3{fill:#def9f0;}.cls-4{fill:#bfbfbf;}.cls-5{fill:#898989;}.cls-6{fill:#e2e2e2;}.cls-7{fill:#dbbe45;}.cls-8{fill:#bdd7fa;}.cls-9{fill:#ba425e;}.cls-12,.cls-15,.cls-17,.cls-21,.cls-23,.cls-31,.cls-33,.cls-36,.cls-39,.cls-43,.cls-46,.cls-47,.cls-48,.cls-49,.cls-50,.cls-51,.cls-52,.cls-9{mix-blend-mode:multiply;}.cls-10,.cls-59{fill:#00a878;}.cls-11{fill:#482820;}.cls-12{fill:#6a4138;}.cls-12,.cls-23{opacity:0.4;}.cls-13{fill:#a82f4c;}.cls-14{fill:#203526;}.cls-15,.cls-16,.cls-20,.cls-23{fill:#d35971;}.cls-15,.cls-16,.cls-17,.cls-22,.cls-36,.cls-53{opacity:0.5;}.cls-16,.cls-22,.cls-37,.cls-53{mix-blend-mode:screen;}.cls-17{fill:#1f6d37;}.cls-18{fill:#ffcba1;}.cls-19{fill:#cc7a0e;}.cls-21{fill:#e59e2c;}.cls-21,.cls-37{opacity:0.6;}.cls-22{fill:#ffb32c;}.cls-24{clip-path:url(#clip-path);}.cls-25{fill:#ddcbbc;}.cls-26,.cls-33{fill:#252d3a;}.cls-27{fill:#bfa491;}.cls-28{fill:#ef4706;}.cls-29,.cls-31,.cls-39{fill:#f4c4a4;}.cls-30{fill:#c48b60;}.cls-31,.cls-33{opacity:0.7;}.cls-32{clip-path:url(#clip-path-2);}.cls-34{fill:#ea5d0f;}.cls-35{stroke:#fcd5b8;stroke-linecap:round;stroke-linejoin:round;}.cls-36{fill:#e86a03;}.cls-37{fill:#990505;}.cls-38{fill:#e2c3aa;}.cls-40{fill:#1f1f1d;}.cls-41{fill:#9e4c0b;}.cls-42{fill:#f9ceb2;}.cls-43{fill:#fad6be;}.cls-44{fill:#727272;}.cls-45,.cls-47{fill:#c1c0bf;}.cls-46{fill:#a0a0a0;}.cls-46,.cls-47,.cls-48,.cls-49,.cls-50,.cls-51,.cls-52{opacity:0.3;}.cls-48{fill:#7c7c7b;}.cls-49{fill:#757574;}.cls-50{fill:#828282;}.cls-51{fill:#7a7a79;}.cls-52{fill:#7f7f7f;}.cls-53{fill:#424241;}.cls-54{fill:#038e63;}.cls-55{fill:#55937e;}.cls-56{fill:#096d4e;}.cls-57{fill:#669e8d;}.cls-58{fill:#44ad8a;}.cls-59{opacity:0.33;}</style><clipPath id="clip-path" transform="translate(-17.82 -27.03)"><path class="cls-1" d="M73.12,378.77c31.26,6.85,83.11.25,98.3-4.34S186,339.28,186,339.28c-2.88,1.72-6.62,4-17.69,6.57s-36.53,10.6-45.59,13.7-13.95,2.42-16.81,0-4.27-12.06-4.27-12.06c-34.11,3.41-42.2-2.82-42.2-2.82S56.13,375.05,73.12,378.77Z"/></clipPath><clipPath id="clip-path-2" transform="translate(-17.82 -27.03)"><path class="cls-1" d="M79.69,234.13s-10.93,47.53-5.84,72.2c0,0,3.62-2.36,2.76,3.1,0,0,15.49-2.33,27.52-3.69a170.64,170.64,0,0,1,23.32-.9l.86,5.05s15.84-1.05,44.49-17.81c0,0,.68-22.1,4.51-36.16,0,0,6.24-26.11-43.78-29.42C108.53,224.85,79.69,234.13,79.69,234.13Z"/></clipPath></defs><g class="cls-2"><g id="Layer_1" data-name="Layer 1"><path class="cls-3" d="M484.61,219.44a91,91,0,0,0,3.63,51.49,119.62,119.62,0,0,1,7.44,32.36C502,375,443.48,438.7,365.05,445.58c-46.08,4-88.79-12.43-117.46-41.26a94.67,94.67,0,0,0-75.92-27.8l-.9.08C92.34,383.48,24,335.24,18.22,268.86c-3-33.8,10.84-65.8,35.46-90A130.46,130.46,0,0,0,87,124.07C102.68,72.83,151.67,33,212.76,27.64,255.81,23.86,295.93,38,324.39,63.36a12,12,0,0,0,9,3h.05c78.44-6.88,147.11,45.67,153.4,117.38A119.9,119.9,0,0,1,484.61,219.44Z" transform="translate(-17.82 -27.03)"/><path class="cls-4" d="M140.7,93.74c2.68-5.77,7.48-6.9,13.37-6.88,42.24.14,84.48.08,126.72.07,1.25,0,2.49-.05,3.73-.07a14.81,14.81,0,0,0,6.88,0c7.19,0,14.37.07,21.55.07q53.74,0,107.48,0c1.09,0,2.3-.45,3.29.47v202.7c0,2.92-1.58,4.63-4.21,5.45a17.87,17.87,0,0,1-5.37.67q-136.72,0-273.44,0Zm260,13.81q-115.75,0-231.52-.11c-6.27,0-8.35,3-8.35,8.5q.07,81.39,0,162.78c0,6.09,2.22,8.3,8.31,8.3H397.53c1.05,0,2.11,0,3.16,0,2,0,4,0,6,0,6.45,0,8.36-1.9,8.36-8.35V115.4c0-.67,0-1.34,0-2-.18-3.6-2.45-5.82-6-5.86C406.27,107.5,403.49,107.54,400.71,107.55Z" transform="translate(-17.82 -27.03)"/><path class="cls-5" d="M140.7,296.23q136.73,0,273.44,0a17.87,17.87,0,0,0,5.37-.67c2.63-.82,4.23-2.53,4.21-5.45V87.43c6.79,0,9.71,1.78,11.23,6.87a12.54,12.54,0,0,1,.26,3.7q0,99.06,0,198.13c0,7.6-3.56,11.18-11.17,11.18H203.49c-16.68,0-33.36-.18-50,.1-5.72.09-10.05-1.39-12.76-6.58Z" transform="translate(-17.82 -27.03)"/><path class="cls-6" d="M400.69,287c-1.05,0-2.11,0-3.16,0H169.18c-6.09,0-8.31-2.21-8.31-8.3q0-81.39,0-162.78c0-5.52,2.08-8.51,8.35-8.5q115.77.21,231.52.11Q400.7,197.27,400.69,287Zm-84-109.58q0,14.94,0,29.88a6,6,0,0,0,6.1,6.09q23.42,0,46.83,0c4.48,0,6.87-2.39,6.88-6.93q0-29,0-58c0-4.53-2.37-6.9-6.91-6.91q-23.26,0-46.54,0c-4.18,0-6.35,2.21-6.36,6.31Q316.7,162.6,316.72,177.4ZM180.37,156.5v22.71c0,5.22,1.89,7.14,7,7.15h45.72c4.57,0,7-2.15,7-6.78q.15-23.15,0-46.29c0-4.47-2.48-6.74-6.82-6.75q-23.29,0-46.58,0c-4.14,0-6.37,2.28-6.38,6.38C180.36,140.78,180.37,148.64,180.37,156.5ZM258,208.18H235c-5,0-6.86,1.85-6.87,6.95q0,22.86,0,45.71c0,4.47,2.28,7.09,6.76,7.12q23.15.15,46.29,0c4.28,0,6.74-2.53,6.75-6.57q.07-23.58,0-47.15c0-4-2.24-6.05-6.36-6.06C273.73,208.17,265.87,208.19,258,208.18Z" transform="translate(-17.82 -27.03)"/><path class="cls-7" d="M400.69,287q0-89.72,0-179.43c2.78,0,5.56,0,8.33,0,3.59,0,5.86,2.26,6,5.86,0,.67,0,1.34,0,2V278.67c0,6.45-1.91,8.36-8.36,8.35C404.72,287,402.7,287,400.69,287Z" transform="translate(-17.82 -27.03)"/><path class="cls-8" d="M316.72,177.4q0-14.81,0-29.59c0-4.1,2.18-6.3,6.36-6.31q23.28,0,46.54,0c4.54,0,6.9,2.38,6.91,6.91q0,29,0,58c0,4.54-2.4,6.93-6.88,6.93q-23.42,0-46.83,0a6,6,0,0,1-6.1-6.09Q316.7,192.34,316.72,177.4Z" transform="translate(-17.82 -27.03)"/><path class="cls-9" d="M180.37,156.5c0-7.86,0-15.72,0-23.58,0-4.1,2.24-6.37,6.38-6.38q23.3,0,46.58,0c4.34,0,6.79,2.28,6.82,6.75q.15,23.15,0,46.29c0,4.63-2.47,6.77-7,6.78H187.4c-5.14,0-7-1.93-7-7.15Z" transform="translate(-17.82 -27.03)"/><path class="cls-10" d="M258,208.18c7.86,0,15.72,0,23.57,0,4.12,0,6.35,2,6.36,6.06q.07,23.58,0,47.15c0,4-2.47,6.54-6.75,6.57q-23.15.15-46.29,0c-4.48,0-6.76-2.65-6.76-7.12q0-22.85,0-45.71c0-5.1,1.84-6.95,6.87-6.95Z" transform="translate(-17.82 -27.03)"/><path class="cls-11" d="M196.67,191.89a9.14,9.14,0,0,1-.93-.71c1.1-1.18.45-6,.5-7.74.13-4.76.13-9.48-.19-14.23a134.48,134.48,0,0,0-4.4-26,73,73,0,0,0-9.9-22.25,35.18,35.18,0,0,0-12.14-10.78,48.74,48.74,0,0,0-8.4-5.38c-15-7.47-31.56-7.48-47.53-4.2-7.88,1.62-15.4,4.82-22.74,8.25a99.24,99.24,0,0,0-10.75,5.87c-.23.15-.44.31-.65.46,0-.17-.28-.23-.46,0-.38.43-.74.87-1.11,1.3a33.08,33.08,0,0,0-4.28,5.38,1.54,1.54,0,0,0-.34.89c-5.8,9-9,19.34-10.16,30.78a104.58,104.58,0,0,0,1,25.79,47.61,47.61,0,0,0,3.55,11.3c.85,2,1.22,6.11,2.93,7.45a.68.68,0,0,0,.79.06c1.48-.73,2.1-2,3.8-2.63,2.75-1,6.69,1.46,9.22,2.51a27.87,27.87,0,0,0,13.54,1.95c5.57-.65,10.62-2.64,16-4.2,7-2,13.72-.24,20.56,1.46,5,1.24,10.29,2.66,15.47,2.26a33.65,33.65,0,0,0,7.43-1.24c2.67-.8,5.07-2.3,7.79-2.94,5.08-1.2,10.87,1.11,16,1.88s9.7-1.62,14.39-3.11C196.26,193.8,197.64,192.52,196.67,191.89Z" transform="translate(-17.82 -27.03)"/><path class="cls-12" d="M196.67,191.89a9.14,9.14,0,0,1-.93-.71c1.1-1.18.45-6,.5-7.74.13-4.76.13-9.48-.19-14.23a134.48,134.48,0,0,0-4.4-26,73,73,0,0,0-9.9-22.25,35.18,35.18,0,0,0-12.14-10.78,48.74,48.74,0,0,0-8.4-5.38c-15-7.47-31.56-7.48-47.53-4.2-7.88,1.62-15.4,4.82-22.74,8.25a99.24,99.24,0,0,0-10.75,5.87c-.23.15-.44.31-.65.46,0-.17-.28-.23-.46,0-.38.43-.74.87-1.11,1.3a33.08,33.08,0,0,0-4.28,5.38,1.54,1.54,0,0,0-.34.89c-5.8,9-9,19.34-10.16,30.78a104.58,104.58,0,0,0,1,25.79,47.61,47.61,0,0,0,3.55,11.3c.85,2,1.22,6.11,2.93,7.45a.68.68,0,0,0,.79.06c1.48-.73,2.1-2,3.8-2.63,2.31-.8,5.46.77,7.91,1.92a4.88,4.88,0,0,0,1.45-1.6,16,16,0,0,0,1.91-9c-.33-3.85-2.55-9.87-.72-13.57a.65.65,0,0,1,1.21.17c.82,3.61,2.21,7,3.14,10.55a34.25,34.25,0,0,1,1,6.49c.67-3.49,0-7.25-.2-10.78-.06-.86,1-.89,1.3-.19a44.48,44.48,0,0,1,2.6,10.43c.59-2.17,1.26-4.31,2-6.44.21-.61,1.12-.75,1.27,0a69.05,69.05,0,0,1,.75,7c.26-1.77.4-3.56.56-5.35,0-.64.91-1.06,1.23-.36,1.38,3.07,4.28,6.21,3.75,9.87-.09.67-.91.61-1.2.17-.67-1-1.32-2.09-2-3.14a9.6,9.6,0,0,1-3,6.83c-.33.3-1,.27-1.1-.31a51.84,51.84,0,0,0-.68-5.21A21.18,21.18,0,0,1,93.81,200a25.94,25.94,0,0,0,4.24-.12c5.57-.65,10.62-2.64,16-4.2,7-2,13.72-.24,20.56,1.46,4.59,1.13,9.39,2.4,14.15,2.3,1.65-3.82,1.81-7.63.87-12.25a.72.72,0,0,1,.64-.9c3.17-.34,4.27,2.49,5.5,5.08.65-2.49.34-5.2,1.58-7.54a.65.65,0,0,1,1.21.17,26.39,26.39,0,0,1,.91,5.74,41.21,41.21,0,0,0,4.65-10.91.65.65,0,0,1,1.21-.17,8.34,8.34,0,0,1,.94,5.54,31.83,31.83,0,0,0,1.93-8.14c.07-.64.9-1.06,1.23-.36a15.43,15.43,0,0,1,.72,9.69,27.27,27.27,0,0,1-1.69,5.58c-.59,1.33-1.42,2.67-1.92,4,4.77-.61,10,1.39,14.72,2.1,5.08.77,9.7-1.62,14.39-3.11C196.26,193.8,197.64,192.52,196.67,191.89Z" transform="translate(-17.82 -27.03)"/><path class="cls-13" d="M77.77,219a117.59,117.59,0,0,1,20.41,1.24c10.23,1.55,23.26,4,24.68-1.55-8.37-8.06-12.22-20.4-12.27-19.66s0-6.7,0-6.7a18,18,0,0,0-9.71-1.39c-5.49.74-6.33,9.21-6.33,9.21s-7.43,1.26-11.44,2.14c-6,1.3-9.21,13.4-9.21,13.4S73.18,218.93,77.77,219Z" transform="translate(-17.82 -27.03)"/><path class="cls-14" d="M97.06,193.29s-.07.26-.22.71l-.63,1.82c-.11.38-.25.77-.37,1.2s-.24.87-.36,1.33a10.1,10.1,0,0,0-.25,2.85l.07.7.16.69a9.08,9.08,0,0,0,.5,1.29,13.5,13.5,0,0,0,1.38,2.17c.5.6.91,1.12,1.23,1.46l.48.57s-.25-.11-.67-.34a10.38,10.38,0,0,1-1.65-1.09,10.24,10.24,0,0,1-1-.92,7.29,7.29,0,0,1-.93-1.21,6.73,6.73,0,0,1-.73-1.5l-.23-.85-.12-.87a8.89,8.89,0,0,1,.09-1.72,8,8,0,0,1,.4-1.59,11.93,11.93,0,0,1,1.22-2.53A13.5,13.5,0,0,1,97.06,193.29Z" transform="translate(-17.82 -27.03)"/><path class="cls-15" d="M110.59,199c-.06.75,0-6.7,0-6.7a18,18,0,0,0-9.71-1.39c-5.49.74-6.33,9.21-6.33,9.21s-7.43,1.26-11.44,2.14c-6,1.3-9.21,13.4-9.21,13.4s-.72,3.25,3.87,3.31a117.59,117.59,0,0,1,20.41,1.24c10.23,1.55,23.26,4,24.68-1.55C114.49,210.62,110.64,198.28,110.59,199Zm-2.11,20.72c-6-1.21-19.79-4.06-27.6-3.41s-1.64-10.14,1.2-12.28,9.48-.91,12.38,1.49c7.07,5.86,13,7.35,9.3,5.3-7.12-3.92-8.74-10.56-6.05-16.19,2.05-4.28,7.26-3.44,9.4,1.67s5.59,16.56,11,20.19S114.43,221,108.48,219.74Z" transform="translate(-17.82 -27.03)"/><path class="cls-16" d="M104.13,194.65c2.62,6.08,4.68,14.51,12.94,22.14,1.81,1.68-13.4-6.44-15.91-16.11S102.89,191.76,104.13,194.65Z" transform="translate(-17.82 -27.03)"/><path class="cls-16" d="M81.15,207.21c3.38-4.12,8.75-3.85,15.07.87s11.65,8.1,17.4,8.93c1.68.25-6.8,3.63-18.32-3.94C87.7,208.08,85.83,205.36,81.15,207.21Z" transform="translate(-17.82 -27.03)"/><path class="cls-13" d="M128.57,222.12c5.58.19,14.27-1.3,27.73-3s15.09-5.3,14.63-7c0,0-1.67-11.91-16.19-12.28a14,14,0,0,0-1.36-5.83c-1.36-2.49-14.76-2.49-14.76-2.49l.5,6.89c-5.34,7.69-16.26,20.34-16.26,20.34S123,221.93,128.57,222.12Z" transform="translate(-17.82 -27.03)"/><path class="cls-13" d="M153.9,195.09a5.77,5.77,0,0,1,1.16,2.18,7.58,7.58,0,0,1,.4,2.55,8.22,8.22,0,0,1-.11,1.47,12.76,12.76,0,0,1-.36,1.48,11.15,11.15,0,0,1-1.36,2.64c-.28.37-.57.72-.84,1.05s-.6.58-.88.83a8.84,8.84,0,0,1-1.42,1.06l-.58.35.37-.57c.23-.36.63-.8,1-1.41.19-.29.4-.61.63-.93s.39-.72.62-1.08.36-.78.58-1.17.31-.83.49-1.24.27-.85.35-1.28.19-.85.22-1.27a13.77,13.77,0,0,0-.26-4.66Z" transform="translate(-17.82 -27.03)"/><path class="cls-17" d="M170.93,212.05s-1.67-11.91-16.19-12.28a14,14,0,0,0-1.36-5.83c-1.36-2.49-14.76-2.49-14.76-2.49l.5,6.89c-5.34,7.69-16.26,20.34-16.26,20.34s.13,3.25,5.71,3.44,14.27-1.3,27.73-3S171.39,213.8,170.93,212.05ZM155.4,216.7c-14.52,3.16-31.54,4.65-29.5,1.3s5.57-3.56,12.73-12.68c2.63-3.35,5.77-8.61,5.42-11.14-.2-1.43,2-2.79,6.7-.46s.81,12.83-6.33,18.33c-1.21.93,5.79-1.85,10.41-5.25,4.38-3.22,10.11-3.51,12.76-.36S169.91,213.54,155.4,216.7Z" transform="translate(-17.82 -27.03)"/><path class="cls-16" d="M132.32,214.37c4.69-3.32,14.05-11.9,15.45-17.86s7.35,8-5.21,15.54C137,215.4,127.57,217.75,132.32,214.37Z" transform="translate(-17.82 -27.03)"/><path class="cls-16" d="M143.68,214.37c8.23-1.62,16.93-5.66,20.74-7.57s4.77,6-12.75,9.22C144.52,217.31,136.14,215.86,143.68,214.37Z" transform="translate(-17.82 -27.03)"/><path class="cls-18" d="M203.31,251.12c-2.79-16-13.58-38.33-32.38-39.07.46,1.75-1.17,5.33-14.63,7s-22.15,3.21-27.73,3-5.71-3.44-5.71-3.44c-1.42,5.52-14.45,3.1-24.68,1.55A117.59,117.59,0,0,0,77.77,219c-4.59-.06-3.87-3.31-3.87-3.31s-24.47,14-31.17,54.92c-4.48,27.36-1.14,47.28,3.18,58.83,4-2.07,9.68-3.67,15.5-.53,10.6,5.71,8.08,18.59,8.08,18.59s-7.18-1.52-10.09-3l-.14.08.2.08s-7.06,21.92-7.89,35.87c0,0,.18,1,3.62,2,0,0,17.31,7.35,64.39,7.16s70.83-10,70.83-10a7.49,7.49,0,0,0,2.92-6.21c-.25-4-7.45-34.86-7.45-34.86-1.24-1.17-5.64-11.84,1.24-20.4,4.35-5.4,11.06-5.32,15.42-4.53C207.14,296.16,206,266.55,203.31,251.12Z" transform="translate(-17.82 -27.03)"/><path class="cls-19" d="M101.35,346.57c1.44,3.41,2.8,6.86,4.19,10.29l0-.06a6.81,6.81,0,0,0,1.83,1.84,7.09,7.09,0,0,0,2.41,1.16,12.61,12.61,0,0,0,5.54.08,28.87,28.87,0,0,0,2.82-.69l2.86-.78c1.9-.53,3.82-1,5.7-1.58L149.35,350c3.77-1.16,7.59-2.22,11.39-3.34s7.62-2.08,11.41-3.16c1.87-.6,3.78-1.08,5.59-1.8.9-.36,1.85-.62,2.72-1.06a26.19,26.19,0,0,1,2.67-1.15,32.9,32.9,0,0,0,5.05-2.91,41.37,41.37,0,0,0,4.58-3.72,34.78,34.78,0,0,1-4.14,4.27,28,28,0,0,1-10.37,6c-1.87.74-3.79,1.23-5.69,1.83-3.81,1.09-7.65,2-11.42,3.17s-7.58,2.16-11.36,3.33l-22.72,6.85c-1.89.58-3.8,1.05-5.71,1.58l-2.86.78c-.94.24-1.9.56-2.93.72a14,14,0,0,1-6.2-.12,7.41,7.41,0,0,1-5-3.9v0l0,0C103.33,353.71,102.3,350.15,101.35,346.57Z" transform="translate(-17.82 -27.03)"/><path class="cls-20" d="M187.12,318.3c-6.88,8.56-2.48,19.23-1.24,20.4,0,0,10.92-5.7,16.13-23,.19-.62.36-1.26.53-1.92C198.18,313,191.47,312.9,187.12,318.3Z" transform="translate(-17.82 -27.03)"/><path class="cls-20" d="M69.49,347.49S72,334.61,61.41,328.9c-5.82-3.14-11.54-1.54-15.5.53,2.15,5.73,4.54,9.41,6.34,10.89a31.54,31.54,0,0,0,7,4.27l.14-.08C62.31,346,69.49,347.49,69.49,347.49Z" transform="translate(-17.82 -27.03)"/><path class="cls-19" d="M172.8,289s0-.71,0-1.94,0-3,.13-5.09.23-4.56.5-7.19.61-5.41,1-8.19c.21-1.39.49-2.78.75-4.14s.59-2.69.86-4c.61-2.57,1.36-4.93,2-6.94.32-1,.73-1.9,1-2.69a21.7,21.7,0,0,1,.92-2l.87-1.73-.6,1.84a20.36,20.36,0,0,0-.67,2.1c-.21.83-.5,1.74-.76,2.76s-.53,2.11-.79,3.28-.49,2.41-.76,3.69c-.48,2.57-1,5.31-1.42,8.07s-.84,5.52-1.22,8.12-.72,5-1,7.1-.51,3.82-.67,5S172.8,289,172.8,289Z" transform="translate(-17.82 -27.03)"/><path class="cls-19" d="M172.8,235.62a8.56,8.56,0,0,1,.6.8,21.36,21.36,0,0,1,1.36,2.26,26.15,26.15,0,0,1,1.51,3.43c.2.65.47,1.31.63,2s.37,1.41.5,2.13a25.73,25.73,0,0,1,.48,4.28,18.63,18.63,0,0,1,0,2,11.94,11.94,0,0,1-.17,1.76,18,18,0,0,1-.54,2.59c-.16.62-.28,1-.28,1s0-.37,0-1c0-.32,0-.69,0-1.13s0-.93,0-1.46c0-1.07-.12-2.3-.26-3.62-.07-.66-.15-1.33-.27-2s-.2-1.38-.36-2.08c-.23-1.38-.6-2.74-.92-4s-.7-2.47-1-3.49-.61-1.87-.84-2.46Z" transform="translate(-17.82 -27.03)"/><path class="cls-19" d="M79.69,234.13c-1.17,6-2.15,12-3,18q-.64,4.5-1.16,9l-1,9c-.65,6-1.11,12.06-1.21,18.09a86.23,86.23,0,0,0,1.31,18l-1.13-.48a5.53,5.53,0,0,1,.81-.4,3.73,3.73,0,0,1,.93-.22,2.15,2.15,0,0,1,1.13.22,1.89,1.89,0,0,1,.81.85,3.94,3.94,0,0,1,.35,1.8,10.46,10.46,0,0,1-.14,1.6l-.84-.86c4.22-.59,8.43-1.26,12.67-1.77l12.69-1.64c1-.13,2.13-.29,3.18-.38l3.18-.31c2.14-.14,4.29-.32,6.42-.39s4.28-.15,6.42-.17,4.27,0,6.42.07h0a.67.67,0,0,1,.57.36,1.12,1.12,0,0,1,.12.29l0,.16.06.28.11.54.17,1.06.32,2.1.56,4.21c.34,2.8.66,5.61.94,8.42.55,5.62,1,11.25,1.25,16.9a.73.73,0,0,1-.47.73c-3.27,1.24-6.55,2.32-9.87,3.34s-6.67,1.92-10,2.74a145,145,0,0,1-20.52,3.55,98,98,0,0,1-10.43.46A68.52,68.52,0,0,1,70,348.1,45.81,45.81,0,0,1,60,345a32,32,0,0,1-8.68-5.65,31.93,31.93,0,0,0,8.87,5.19,44.59,44.59,0,0,0,10,2.53,66.19,66.19,0,0,0,10.24.63,97.76,97.76,0,0,0,10.27-.44,144.5,144.5,0,0,0,20.31-3.52q5-1.21,10-2.72c3.28-1,6.57-2.08,9.76-3.3l-.47.73q-.41-8.42-1.26-16.82-.41-4.2-.93-8.39l-.55-4.18-.31-2.07-.32-1.81.61.36c-2.11-.07-4.24-.08-6.36-.06s-4.24.07-6.36.17-4.22.24-6.34.39l-3.18.3c-1.07.09-2.09.25-3.16.38l-12.66,1.63c-4.23.52-8.43,1.18-12.65,1.78a.76.76,0,0,1-.85-.64.81.81,0,0,1,0-.22A9.27,9.27,0,0,0,76,308a2.7,2.7,0,0,0-.18-1.12c-.14-.23-.19-.26-.51-.26a2,2,0,0,0-.52.13,3.58,3.58,0,0,0-.52.25h0a.72.72,0,0,1-1-.23.66.66,0,0,1-.1-.25,87.14,87.14,0,0,1-1.35-18.29c.1-6.1.56-12.18,1.22-18.23.17-1.51.3-3,.52-4.54s.44-3,.68-4.51q.75-4.5,1.6-9C77,246,78.23,240,79.69,234.13Z" transform="translate(-17.82 -27.03)"/><path class="cls-19" d="M75.68,306a3.44,3.44,0,0,0-.44.14,4.3,4.3,0,0,0-.47.18,5.45,5.45,0,0,0-.57.26c-.21.11-.42.23-.66.34s-.45.3-.69.44c-.49.26-1,.68-1.46,1s-1,.78-1.44,1.1c-.22.19-.48.32-.68.51s-.41.34-.6.48a10,10,0,0,1-1.38.92,9.52,9.52,0,0,1,.75-1.49,6.35,6.35,0,0,1,1-1.38,10.37,10.37,0,0,1,1.45-1.34l.86-.55a3.84,3.84,0,0,1,.89-.43,5.16,5.16,0,0,1,1.72-.43,2.89,2.89,0,0,1,.72,0,2.12,2.12,0,0,1,.54.08A1.52,1.52,0,0,1,75.68,306Z" transform="translate(-17.82 -27.03)"/><path class="cls-19" d="M76.93,307.17s.09.76.2,1.84c0,.54.12,1.17.17,1.83s.09,1.37.24,2.06.14,1.41.27,2.05.13,1.3.27,1.82a12.22,12.22,0,0,1,.25,1.84A11.7,11.7,0,0,1,77.27,317a8.54,8.54,0,0,1-.74-1.79,5.89,5.89,0,0,1-.29-1.06l-.18-1.11a12.83,12.83,0,0,1-.07-2.22,10.2,10.2,0,0,1,.12-1,5.63,5.63,0,0,1,.17-.89A6.61,6.61,0,0,1,76.93,307.17Z" transform="translate(-17.82 -27.03)"/><path class="cls-19" d="M84.91,238.35s-.79,1.66-2,4.17c-.59,1.24-1.27,2.69-2,4.24s-1.51,3.21-2.24,4.88-1.44,3.35-2.08,4.93c-.31.8-.6,1.57-.87,2.3s-.49,1.45-.71,2.09-.37,1.26-.54,1.79a10.94,10.94,0,0,0-.35,1.4c-.17.79-.29,1.24-.29,1.24s0-.46,0-1.27a11.85,11.85,0,0,1,.09-1.47c.07-.56.11-1.21.25-1.89a35.7,35.7,0,0,1,1.17-4.63c.3-.82.55-1.69.9-2.53s.68-1.72,1.07-2.56c.76-1.69,1.58-3.36,2.42-4.87s1.68-2.91,2.44-4.07,1.45-2.09,1.92-2.75S84.91,238.35,84.91,238.35Z" transform="translate(-17.82 -27.03)"/><path class="cls-21" d="M203.31,251.12c-2.79-16-13.58-38.33-32.38-39.07.46,1.75-1.17,5.33-14.63,7s-22.15,3.21-27.73,3-5.71-3.44-5.71-3.44c-1.42,5.52-14.45,3.1-24.68,1.55A117.59,117.59,0,0,0,77.77,219c-4.59-.06-3.87-3.31-3.87-3.31s-24.47,14-31.17,54.92c-4.48,27.36-1.14,47.28,3.18,58.83,2.15,5.73,4.54,9.41,6.34,10.89a31.54,31.54,0,0,0,7,4.27l.2.08s-7.06,21.92-7.89,35.87c0,0,.18,1,3.62,2,0,0,17.31,7.35,64.39,7.16s70.83-10,70.83-10a7.49,7.49,0,0,0,2.92-6.21c-.25-4-7.45-34.86-7.45-34.86s10.92-5.7,16.13-23c.19-.62.36-1.26.53-1.92C207.14,296.16,206,266.55,203.31,251.12ZM120.63,387.7C54,389,55.08,371.22,60.88,373.32s27.5,4,56,4.46c29.29.51,53.12-4.37,64-8.43S187.31,386.42,120.63,387.7Zm71.52-63.51c-10.54,11-21.06,16.6-51.92,25.68-32.87,9.68-33.49-1.37-22.57-4,14.68-3.56,19.23-8,25.43-7.15s21.58-1.11,33.77-10.66S181.54,315,181.54,315c8.07-7.76,3.77-11.77,3.77-11.77a8.86,8.86,0,0,0-1.34-11.1c1.19-1.35,1.48-4.39-.62-21.51a146.67,146.67,0,0,1,.33-34c-3.63,5.3-4.53,10-5,7.16-1.17-6.72-7.66-12.28-7.66-12.28,2.73,16.56-17.37,19.26-57.38,16.47-29.7-2.07-26.51-14.33-26.51-14.33a71.26,71.26,0,0,1-6.89,6.51c.28-3.72,1.31-11.46,1.31-11.46-3.61,1.7-5.87,7.47-7.14,12-1.64,7.53-4,17.62-6.41,31.07-5.71,31.4-.32,36.07-3.67,45.59,0,0,3.25-6.27,8-7.84,3-1,.54,4.54,7,11.24,0,0-4.37-9.82,9.4-11.41s33.12-3.53,36.75,3.08.19,22.14-32.37,26.05S40.6,340.07,42.54,282C43.6,250.18,59,228.2,68.39,222.14h0l.06,0a9.64,9.64,0,0,1,4-1.65c8.36-2.09,20.94,1.35,30,3.4,10.7,2.42,16.37.38,19.82.28s4,2.79,30.09-.55,16.33-12.47,26.69-8.69c11.53,4.22,21.7,25.55,24.32,46.27C205.63,279,202.64,313.26,192.15,324.19Z" transform="translate(-17.82 -27.03)"/><path class="cls-22" d="M62.78,230.16c-10.07,12.23-22.26,33.24-17.61,74.68,1.77,15.77,14.55,25.93,12.45,11.09-6.32-44.81.21-60.71,9.67-77.58C75.86,223.05,67,225,62.78,230.16Z" transform="translate(-17.82 -27.03)"/><path class="cls-22" d="M188.86,237.17c.73,9.28-1.17,34.67,1.43,49.68,2.42,14,.56,26.3-1.31,31.76s14.78-4.92,12.47-43.29S187.93,225.32,188.86,237.17Z" transform="translate(-17.82 -27.03)"/><path class="cls-22" d="M96.48,227.93c22,4.44,49.71,3.85,61.37-1.43s.06,15.89-30.1,15.88C99.63,242.37,84.38,225.48,96.48,227.93Z" transform="translate(-17.82 -27.03)"/><path class="cls-20" d="M188.3,389.32a16,16,0,0,0,2.67-2c.44-.56-.56-7.56-.56-7.56s-23.75,9.8-70.83,10-64.39-7.16-64.39-7.16A13.13,13.13,0,0,0,54,389c.25,2.14,4.78,3.83,4.78,3.83s24,4.56,62.34,5.49S188.3,389.32,188.3,389.32Z" transform="translate(-17.82 -27.03)"/><path class="cls-22" d="M79.76,320.77c-1-3.31,2.17-10.54,20.15-11.68,19.48-1.24,25.81,4.84,25.12,7.44-.44,1.67-2.61-4.5-22.7-4.13C87.12,312.69,81,316.92,79.76,320.77Z" transform="translate(-17.82 -27.03)"/><path class="cls-23" d="M190.41,379.77s-23.75,9.8-70.83,10-64.39-7.16-64.39-7.16A13.13,13.13,0,0,0,54,389c.25,2.14,4.78,3.83,4.78,3.83s24,4.56,62.34,5.49,67.23-9,67.23-9a16,16,0,0,0,2.67-2C191.41,386.77,190.41,379.77,190.41,379.77Zm-69.78,16.62c-42.43-.87-64.81-3.72-62.8-8.81s22.11,4.34,62.8,4.1c42.18-.26,62.25-9.56,64.68-6.58S163.07,397.26,120.63,396.39Z" transform="translate(-17.82 -27.03)"/><g class="cls-24"><path class="cls-25" d="M90.22,244.11c10.87.63,41.21,1.14,54.6,1.9s25.41,2.4,25.41,2.4l3.6-5.5a303.49,303.49,0,0,0-45.38-2.84c-26.48.19-44.31-2.78-46.71,0a.48.48,0,0,0-.08.16.73.73,0,0,0,0,.12l0,.1C81.32,241.34,81.57,243.61,90.22,244.11Z" transform="translate(-17.82 -27.03)"/><path class="cls-26" d="M144.82,246c-13.39-.76-43.73-1.27-54.6-1.9-8.65-.5-8.9-2.77-8.64-3.67-2.24,7.31-2.69,109.08.16,124.88,0,0,13.79,2.34,37.87.83s49.29-3.42,52.13-3.61l.62-.41-2.13-113.72S158.22,246.77,144.82,246Z" transform="translate(-17.82 -27.03)"/><polygon class="cls-27" points="156.01 215.88 152.41 221.38 154.54 335.1 157.34 333.24 156.01 215.88"/><path class="cls-25" d="M84.79,255.19c10.67.62,40.44,1.11,53.59,1.85s24.94,2.36,24.94,2.36l3.53-5.39a296.91,296.91,0,0,0-44.54-2.79c-26,.18-43.49-2.73-45.84,0a.4.4,0,0,0-.08.16,1.17,1.17,0,0,0,0,.11l0,.1C76.06,252.47,76.3,254.69,84.79,255.19Z" transform="translate(-17.82 -27.03)"/><path class="cls-28" d="M138.38,257c-13.15-.74-42.92-1.23-53.59-1.85-8.49-.5-8.73-2.72-8.48-3.61-2.2,7.17-2.64,107.07.16,122.58,0,0,13.53,2.29,37.16.8s48.39-3.35,51.18-3.54l.6-.4L163.32,259.4S151.53,257.79,138.38,257Z" transform="translate(-17.82 -27.03)"/><polygon class="cls-27" points="149.03 226.98 145.5 232.38 147.59 343.99 150.34 342.16 149.03 226.98"/></g><path class="cls-20" d="M96.48,347.35l4.87-.78s2.22,6.59,3.59,10.5l-4.23,1.3A30.22,30.22,0,0,1,96.48,347.35Z" transform="translate(-17.82 -27.03)"/><path class="cls-29" d="M96.48,347.35c-11.27,1.6-23.45,1.84-33.54-1.5a13.48,13.48,0,0,0-1.33,4c-.93,5.12,1.68,4.37,1.68,4.37S61.52,359.33,65,361a2.85,2.85,0,0,0,1.49,2.61c1.68,1,14-1,14-1s13.79,1.08,19.5-5.56a29.22,29.22,0,0,1-3.43-9.68Z" transform="translate(-17.82 -27.03)"/><path class="cls-30" d="M66.45,363.61l-.19-.09a3.3,3.3,0,0,1-.53-.25,2.5,2.5,0,0,1-.72-.68,2.11,2.11,0,0,1-.42-1.28,3.23,3.23,0,0,1,.41-1.54,6.13,6.13,0,0,1,1-1.35,12.25,12.25,0,0,1,2.76-2.13,20.69,20.69,0,0,1,3.09-1.48,23.8,23.8,0,0,1,2.81-.91c.83-.24,1.54-.34,2-.44l.78-.12s-1,.6-2.52,1.36L72.38,356c-.47.22-.93.51-1.42.75s-1,.54-1.44.82-.92.57-1.38.85a12.4,12.4,0,0,0-1.23.94,4,4,0,0,0-1.47,2,1.56,1.56,0,0,0,.07.94,2.28,2.28,0,0,0,.4.71C66.24,363.4,66.45,363.61,66.45,363.61Z" transform="translate(-17.82 -27.03)"/><path class="cls-30" d="M62.84,357.3s0-.24-.07-.66c0-.21,0-.47-.06-.76a7.72,7.72,0,0,1,.17-1l.12-.61c.07-.19.17-.38.25-.58a6.8,6.8,0,0,1,.64-1.22c.28-.37.57-.78.89-1.16s.73-.68,1.1-1a6.74,6.74,0,0,1,1.22-.86c.41-.26.83-.5,1.24-.71s.85-.34,1.25-.48a8.13,8.13,0,0,1,1.12-.37,19,19,0,0,1,2.41-.36A19.72,19.72,0,0,1,71,348.65c-.32.15-.63.39-1,.58s-.7.42-1.08.62-.7.52-1.07.75a6.14,6.14,0,0,0-1.07.81c-.34.3-.71.56-1,.87s-.58.63-.87.94a9.81,9.81,0,0,0-.7,1l-.33.46c-.07.16-.15.31-.22.45-.13.3-.3.57-.42.84l-.21.73C62.93,357.07,62.84,357.3,62.84,357.3Z" transform="translate(-17.82 -27.03)"/><path class="cls-31" d="M96.48,347.35h0c-11.27,1.6-23.45,1.84-33.54-1.5a13.48,13.48,0,0,0-1.33,4c-.93,5.12,1.68,4.37,1.68,4.37S61.52,359.33,65,361a2.85,2.85,0,0,0,1.49,2.61c1.68,1,14-1,14-1s13.79,1.08,19.5-5.56A29.22,29.22,0,0,1,96.48,347.35Zm-4.32,11.39c-7.13,2.88-12.53.31-15,1.12-11.55,3.74-12,1.18-5.91-3.29,3.06-2.25,9.7-4.1,9.7-4.1s-6.89-.07-11.19,3.36c-3,2.42-8.17,3.65-6.25-.6s5.55-6.17,11.11-6,13.21,0,18.36-.25S99.29,355.86,92.16,358.74Z" transform="translate(-17.82 -27.03)"/><g class="cls-32"><path class="cls-25" d="M90.22,244.11c10.87.63,41.21,1.14,54.6,1.9s25.41,2.4,25.41,2.4l3.6-5.5a465.3,465.3,0,0,0-46.53-3.7c-28.19-.86-43.16-1.92-45.56.85a.48.48,0,0,0-.08.16.73.73,0,0,0,0,.12l0,.1C81.32,241.34,81.57,243.61,90.22,244.11Z" transform="translate(-17.82 -27.03)"/><path class="cls-26" d="M144.82,246c-13.39-.76-43.73-1.27-54.6-1.9-8.65-.5-8.9-2.77-8.64-3.67-2.24,7.31-2.69,109.08.16,124.88,0,0,13.79,2.34,37.87.83s49.29-3.42,52.13-3.61l.62-.41-2.13-113.72S158.22,246.77,144.82,246Z" transform="translate(-17.82 -27.03)"/><path class="cls-33" d="M170.23,248.41s-12-1.64-25.41-2.4-43.73-1.27-54.6-1.9c-8.65-.5-8.9-2.77-8.64-3.67-2.24,7.31-2.69,109.08.16,124.88,0,0,13.79,2.34,37.87.83s49.29-3.42,52.13-3.61l.62-.41Zm-1.83,4.27c-26.12-2.36-68.64-3.6-78.5-3.79s-6.33-3.81,0-3.85c9,0,51.69,1.52,63.26,2.46,7.24.58,13.81,1.27,15.24,1.58S169.32,252.76,168.4,252.68Z" transform="translate(-17.82 -27.03)"/><polygon class="cls-27" points="156.01 215.88 152.41 221.38 154.54 335.1 157.34 333.24 156.01 215.88"/><path class="cls-25" d="M84.79,255.19c10.67.62,40.44,1.11,53.59,1.85s24.94,2.36,24.94,2.36l3.53-5.39s-19.46-2.45-45.86-3.52c-26-1.05-42.17-2-44.52.72a.4.4,0,0,0-.08.16,1.17,1.17,0,0,0,0,.11l0,.1C76.06,252.47,76.3,254.69,84.79,255.19Z" transform="translate(-17.82 -27.03)"/><path class="cls-34" d="M138.38,257c-13.15-.74-42.92-1.23-53.59-1.85-8.49-.5-8.73-2.72-8.48-3.61-2.2,7.17-2.64,107.07.16,122.58,0,0,13.53,2.29,37.16.8s48.39-3.35,51.18-3.54l.6-.4L163.32,259.4S151.53,257.79,138.38,257Z" transform="translate(-17.82 -27.03)"/><path class="cls-35" d="M138.38,257c-13.15-.74-42.92-1.23-53.59-1.85-8.49-.5-8.73-2.72-8.48-3.61-2.2,7.17-2.64,107.07.16,122.58,0,0,13.53,2.29,37.16.8s48.39-3.35,51.18-3.54l.6-.4L163.32,259.4S151.53,257.79,138.38,257Z" transform="translate(-17.82 -27.03)"/><path class="cls-36" d="M163.32,259.4s-11.79-1.61-24.94-2.36-42.92-1.23-53.59-1.85c-8.49-.5-8.73-2.72-8.48-3.61-2.2,7.17-2.64,107.07.16,122.58,0,0,13.53,2.29,37.16.8s48.39-3.35,51.18-3.54l.6-.4Zm-38.24,31.91C89.47,310.69,74.75,316.74,78.33,267c1-13.49,31.88-8.08,70.39-7.32C167.51,260.06,148.05,278.82,125.08,291.31Z" transform="translate(-17.82 -27.03)"/><polygon class="cls-27" points="149.03 226.98 145.5 232.38 147.59 343.99 150.34 342.16 149.03 226.98"/><path class="cls-37" d="M81.31,293.55c-2.12-17.88-2.6-29,3-31.88s44.34-2.18,55.7-.87c3.22.37,9.79,1.24,4.09,2.36s-49.31,1.77-53.9,6.39S85,288.08,84.52,295,82.18,300.89,81.31,293.55Z" transform="translate(-17.82 -27.03)"/><path class="cls-38" d="M83.64,239.07l3.85-.09c2.45-.1,6,0,10.17,0l6.79.07,3.71,0,3.87.17,16.47.75,8.36.44,8.07.75,14.32,1.33,14,1.35-14-1.16-14.32-1.24-8.07-.71-8.36-.39L112,239.52l-3.87-.19-3.7-.06-6.79-.11-5.74-.1c-1.71-.06-3.2,0-4.43,0Z" transform="translate(-17.82 -27.03)"/><path class="cls-38" d="M81.61,240.34l3.9-.22c2.49-.16,6-.11,10.32-.17l6.89,0c2.44,0,5,.18,7.68.27l16.7.71c2.85.13,5.69.25,8.47.57l8.19.78,14.52,1.38L172.43,245l-14.17-1.21-14.52-1.3-8.19-.74c-2.78-.31-5.63-.4-8.47-.52l-16.69-.8c-2.66-.1-5.23-.31-7.68-.31H95.83c-4.27,0-7.83-.11-10.31,0Z" transform="translate(-17.82 -27.03)"/><path class="cls-38" d="M81.82,241.73s1.4-.13,3.86-.25c1.23-.08,2.72-.11,4.44-.16s3.64-.14,5.75-.1l6.82,0c2.41,0,5,.13,7.6.19s5.36.1,8.12.28l8.38.45c2.81.15,5.62.32,8.38.57l8.1.67,7.58.65,6.77.72,14,1.55-14-1.36-6.78-.68-7.57-.6-8.1-.62c-2.76-.24-5.57-.39-8.38-.53L118.4,242c-2.76-.2-5.49-.23-8.12-.33s-5.18-.2-7.6-.23l-6.81-.06c-2.1,0-4,0-5.75,0s-3.21,0-4.44.1C83.22,241.63,81.82,241.73,81.82,241.73Z" transform="translate(-17.82 -27.03)"/><path class="cls-38" d="M84.39,243.23,88.1,243c1.18-.12,2.62-.09,4.27-.13l5.53-.1,6.56-.08,7.31.3,15.88.64c1.35.07,2.71.11,4,.21l4,.39,7.79.74,13.8,1.33,13.46,1.35-13.48-1.15-13.81-1.25-7.78-.7-4-.36c-1.35-.09-2.7-.12-4.05-.18l-15.87-.75-7.31-.34-6.54.05-5.54,0c-1.65,0-3.09,0-4.27.07Z" transform="translate(-17.82 -27.03)"/><path class="cls-38" d="M77.83,250.49l3.81,0c2.42,0,5.89,0,10,0l14.2.22,16.27.67,8.25.39c2.73.08,5.41.34,8,.56l14.15,1.23,13.79,1.25-13.81-1.06-14.15-1.14c-2.58-.21-5.26-.45-8-.52l-8.26-.34L105.87,251l-14.19-.3c-4.15-.09-7.62-.18-10-.17Z" transform="translate(-17.82 -27.03)"/><path class="cls-38" d="M76.39,251.37l14,.27,6.76.17c2.4,0,4.92.23,7.54.35l16.37.91,30.65,1.86,13.93.9-13.94-.7L121,253.44l-16.37-1c-2.62-.13-5.14-.36-7.54-.39l-6.75-.21Z" transform="translate(-17.82 -27.03)"/><path class="cls-38" d="M76.3,252.33l3.82.06c2.42,0,5.89.11,10,.25l6.71.22c2.38.09,4.9.13,7.49.27l16.28.77,8.27.43c2.73.12,5.4.37,8,.54l14.17,1L164.92,257l-13.84-.86-14.18-.94c-2.59-.16-5.27-.39-8-.5l-8.27-.39-16.27-.85c-2.59-.15-5.11-.21-7.49-.31l-6.71-.26c-4.15-.15-7.62-.33-10-.39Z" transform="translate(-17.82 -27.03)"/><path class="cls-38" d="M77.4,253.62l3.73.06c2.37,0,5.76.08,9.82.23l13.88.45c5.08.12,10.49.46,15.91.71l15.9.88c2.53.16,5,.42,7.3.61l6.54.59L164,258.41l-13.51-1.06-6.54-.55c-2.32-.18-4.76-.43-7.3-.58l-15.9-.78c-5.41-.28-10.82-.65-15.9-.8l-13.88-.53Z" transform="translate(-17.82 -27.03)"/></g><path class="cls-20" d="M134.28,305.37a33.64,33.64,0,0,0-6.89.83,282.72,282.72,0,0,1,3.42,30l5.51-1.23A148.47,148.47,0,0,0,134.28,305.37Z" transform="translate(-17.82 -27.03)"/><path class="cls-29" d="M178.75,317.62a85.79,85.79,0,0,0-8,4.21c7.32-5.15,15.26-13,14.51-15.25s-3.59-2-3.59-2c4.09-3.6,4.21-6.82,2.72-8.31s-7.19.12-7.19.12c5.09-2.85,6.2-5.95,5.33-7.69s-4.34-2.36-13.64,1.86-19.85,10.3-19.6,9.18c1.72-7.76,10.79-15.26,8.93-18.85s-4.47-2.86-10.42,4.84-6.08,4.83-8.56,12.4c-1.49,4.54-3.46,6.92-4.81,8.12A149.11,149.11,0,0,1,136.35,334c4.44,2.92,11,3.78,20,1.76,10.48-2.36,21.09-10.05,24.5-13.65S181.85,316.31,178.75,317.62Z" transform="translate(-17.82 -27.03)"/><path class="cls-30" d="M182.13,292.08s-.23.32-.66.87-1.19,1.19-2.08,2a11,11,0,0,1-1.5,1.24l-1.76,1.24c-1.23.86-2.57,1.72-3.9,2.59-2.8,1.52-5.66,2.89-7.85,3.85-1.08.49-2,.83-2.66,1.1s-1,.39-1,.39.32-.25.9-.65,1.38-1,2.39-1.6,2.18-1.36,3.45-2.1,2.66-1.5,4-2.27,2.66-1.66,3.94-2.4l1.84-1.05a17.2,17.2,0,0,0,1.6-1c1-.65,1.83-1.16,2.41-1.55Z" transform="translate(-17.82 -27.03)"/><path class="cls-30" d="M184,302.06a9.52,9.52,0,0,1-.59.84c-.2.27-.47.57-.77.91a14.83,14.83,0,0,1-1.05,1.12,29.83,29.83,0,0,1-2.9,2.52c-.56.42-1.11.91-1.73,1.3L175.06,310a42.16,42.16,0,0,1-3.83,2.14,28.35,28.35,0,0,1-3.48,1.58c-1,.42-1.93.71-2.54.94l-1,.32s.31-.23.85-.58,1.33-.88,2.28-1.44c.48-.29,1-.6,1.54-.91l1.69-1c1.16-.75,2.47-1.43,3.68-2.26s2.5-1.54,3.63-2.32c.56-.39,1.14-.72,1.65-1.09s1-.71,1.46-1,.85-.62,1.22-.88.69-.49.94-.7Z" transform="translate(-17.82 -27.03)"/><path class="cls-30" d="M178.1,315.93a12.14,12.14,0,0,1-1.34,1.8,23.58,23.58,0,0,1-3.58,3.34c-.74.5-1.45,1-2.19,1.43a20.53,20.53,0,0,1-2.06,1,16.76,16.76,0,0,1-2.15.67,19,19,0,0,1,1.72-1.41c.52-.4,1.1-.9,1.76-1.37s1.33-1,2-1.53c1.39-1.05,2.81-2.05,3.91-2.79S178.1,315.93,178.1,315.93Z" transform="translate(-17.82 -27.03)"/><path class="cls-31" d="M178.75,317.62a85.79,85.79,0,0,0-8,4.21c7.32-5.15,15.26-13,14.51-15.25s-3.59-2-3.59-2c4.09-3.6,4.21-6.82,2.72-8.31s-7.19.12-7.19.12c5.09-2.85,6.2-5.95,5.33-7.69s-4.34-2.36-13.64,1.86-19.85,10.3-19.6,9.18c1.72-7.76,10.79-15.26,8.93-18.85s-4.47-2.86-10.42,4.84-6.08,4.83-8.56,12.4c-1.49,4.54-3.46,6.92-4.81,8.12A149.11,149.11,0,0,1,136.35,334c4.44,2.92,11,3.78,20,1.76,10.48-2.36,21.09-10.05,24.5-13.65S181.85,316.31,178.75,317.62Zm-13.54,13.43c-13.54,6-25.77,1.39-27-8.29s-3.72-13.44-1.11-18.42,3.54-9.84,6-12.65c3.83-4.34,8.68-11.6,11.78-12s1.06,5.5-4,12.43-4.49,10.73-4.49,11.1,6.94-4,14.46-8.19,17.36-8.65,20.33-6.84S162.57,303.07,155,307.27c-4.28,2.38,5.44-1.07,13.44-4.7s12.75-7.58,15.31-5.86-2.43,8-24,20.05c-2.51,1.4,9.07-2.18,15.67-6.37s8.23-4.49,9-3.54-10.17,12.3-19.5,18c-1.3.79,1.8.65,7.6-2.6s7.61-5,9.1-4.25S178.75,325,165.21,331.05Z" transform="translate(-17.82 -27.03)"/><path class="cls-29" d="M110.59,199c0-.74,3.9,11.6,12.27,19.66,0,0,10.92-12.65,16.26-20.34l-.5-6.89s-.06-1.21-.13-2.87A95.64,95.64,0,0,1,122,189.72c-4.09-.08-7.88-.36-11.41-.77v3.37S110.53,199.77,110.59,199Z" transform="translate(-17.82 -27.03)"/><path class="cls-39" d="M110.59,199c0-.3.68,1.56,2,4.4,0-.11-.53-10.09,10.55-10.13s13.86,8,13.86,8c.77-1,1.49-2,2.13-2.93l-.5-6.89s-.06-1.21-.13-2.87A95.64,95.64,0,0,1,122,189.72c-4.09-.08-7.88-.36-11.41-.77v3.37S110.53,199.77,110.59,199Z" transform="translate(-17.82 -27.03)"/><path class="cls-40" d="M109.38,197.84a33.09,33.09,0,0,1-8.25-.71,52.73,52.73,0,0,0,9.69,2.12A15.94,15.94,0,0,1,109.38,197.84Z" transform="translate(-17.82 -27.03)"/><path class="cls-41" d="M83.13,153.72A26.87,26.87,0,0,0,79,131.31c-1-3.53-2.9-6.89-6.28-5.59a7.15,7.15,0,0,0-4.67,5.68,56.55,56.55,0,0,0,1.8,8.8c.06.19.13.38.18.57.74,2.6,1,5.25,1.6,7.88.74,3.16,1.67,6,4.77,7.38C78.88,157.17,82.39,156.67,83.13,153.72Z" transform="translate(-17.82 -27.03)"/><path class="cls-42" d="M77.45,155.05c-4.26-1-4.82-6-5.35-9.28-.66-4.1-5.45-14.59-1.2-17.85a3.82,3.82,0,0,1,1.43-1.3c2.3-1.19,4.14.5,5.16,2.52.18.29.37.62.56,1a24.79,24.79,0,0,1,1.6,3.73,24,24,0,0,1,3.19,13C82.66,150.24,82.68,156.24,77.45,155.05Z" transform="translate(-17.82 -27.03)"/><path class="cls-43" d="M77.45,155.05c-4.26-1-4.82-6-5.35-9.28-.66-4.1-5.45-14.59-1.2-17.85a3.82,3.82,0,0,1,1.43-1.3c2.3-1.19,4.14.5,5.16,2.52.18.29.37.62.56,1a24.79,24.79,0,0,1,1.6,3.73,24,24,0,0,1,3.19,13C82.66,150.24,82.68,156.24,77.45,155.05Z" transform="translate(-17.82 -27.03)"/><path class="cls-41" d="M73.22,141.46a.78.78,0,0,0,1.17,0c1.45-1.65,1.53-4.91.47-6.8A3.53,3.53,0,0,0,73,133.16c-1.44-.3-2.22,1.07-2.57,2.19.13-.41-.12-1.1-.07-1.55a3.61,3.61,0,0,1,.51-1.52,2,2,0,0,1,2.45-.88c1.52.69,2.15,2.43,2.54,3.84a18.09,18.09,0,0,1,.69,4.49,23.92,23.92,0,0,1-.5,4.55c0,.12,0,.23,0,.34a.07.07,0,0,1-.06.06,12.57,12.57,0,0,1-.75,2.12c-.11.25-.45-.16-.42-.32a42.08,42.08,0,0,0,.41-5.38c-.16.59-.41,1.4-.93,1.59-1.08.4-1.65-1.52-2.1-2.78C72.52,140.42,72.83,140.94,73.22,141.46Z" transform="translate(-17.82 -27.03)"/><path class="cls-41" d="M170.27,156c3.1-1.42,4-4.22,4.77-7.38.61-2.63.86-5.28,1.6-7.88.05-.19.12-.38.18-.57a55.38,55.38,0,0,0,1.79-8.8,7.12,7.12,0,0,0-4.66-5.68c-3.38-1.3-5.24,2.06-6.28,5.59a26.87,26.87,0,0,0-4.12,22.41C164.28,156.67,167.8,157.17,170.27,156Z" transform="translate(-17.82 -27.03)"/><path class="cls-42" d="M163.84,146.87a24,24,0,0,1,3.19-13,24.79,24.79,0,0,1,1.6-3.73c.19-.36.37-.69.56-1,1-2,2.86-3.71,5.16-2.52a3.89,3.89,0,0,1,1.43,1.3c4.25,3.26-.54,13.75-1.2,17.85-.53,3.31-1.09,8.3-5.36,9.28C164,156.24,164,150.24,163.84,146.87Z" transform="translate(-17.82 -27.03)"/><path class="cls-43" d="M163.84,146.87a24,24,0,0,1,3.19-13,24.79,24.79,0,0,1,1.6-3.73c.19-.36.37-.69.56-1,1-2,2.86-3.71,5.16-2.52a3.89,3.89,0,0,1,1.43,1.3c4.25,3.26-.54,13.75-1.2,17.85-.53,3.31-1.09,8.3-5.36,9.28C164,156.24,164,150.24,163.84,146.87Z" transform="translate(-17.82 -27.03)"/><path class="cls-41" d="M173.46,141.46a.78.78,0,0,1-1.17,0c-1.45-1.65-1.54-4.91-.47-6.8a3.51,3.51,0,0,1,1.81-1.54c1.44-.3,2.23,1.07,2.58,2.19-.13-.41.11-1.1.06-1.55a3.46,3.46,0,0,0-.5-1.52,2,2,0,0,0-2.45-.88c-1.53.69-2.15,2.43-2.54,3.84a18.09,18.09,0,0,0-.69,4.49,23.92,23.92,0,0,0,.5,4.55c0,.12,0,.23,0,.34a.08.08,0,0,0,.05.06,14.61,14.61,0,0,0,.75,2.12c.12.25.46-.16.43-.32a42.08,42.08,0,0,1-.41-5.38c.16.59.41,1.4.93,1.59,1.08.4,1.64-1.52,2.1-2.78C174.16,140.42,173.84,140.94,173.46,141.46Z" transform="translate(-17.82 -27.03)"/><path class="cls-42" d="M172.73,109.13a159.9,159.9,0,0,0-1.6-16.47c-.08-4.36-.22-9.1-2.72-12.76-2.63-3.85-7.26-6.24-11.36-8.14C146,66.63,134.13,64.18,122,63.29c-9.82-.72-18.92.26-27.81,4.76C88,71.16,82.52,76,79.46,82.11a.14.14,0,0,0-.27,0c-.25.72-.47,1.45-.69,2.17a22.76,22.76,0,0,0-1,3.5.16.16,0,0,0,0,.17A60.11,60.11,0,0,0,76,98.9c-.32,6.48.51,13,.6,19.46,0,2.32,0,4.64.06,7,1.14,5.25.49,11.62.45,16.89,0,2.81-.12,5.65-.14,8.49a46.36,46.36,0,0,0,.66,5.5c2,10.81,9.57,19.28,19.17,24.26,2.39,1.24,16.9,11.41,32.52,10.24,9.14-3.27,17.24-9.29,25.57-14.71a37.62,37.62,0,0,0,9.06-8.78,35.09,35.09,0,0,0,5.18-12.62c.26-1.24.46-2.49.63-3.74A219.5,219.5,0,0,1,171,127.92s0,.06,0,.09c0-.45.06-.89.1-1.34C171.57,120.73,173,115.15,172.73,109.13Z" transform="translate(-17.82 -27.03)"/><path class="cls-43" d="M172.73,109.13a159.9,159.9,0,0,0-1.6-16.47c-.08-4.36-.22-9.1-2.72-12.76-2.63-3.85-7.26-6.24-11.36-8.14C146,66.63,134.13,64.18,122,63.29c-9.82-.72-18.92.26-27.81,4.76C88,71.16,82.52,76,79.46,82.11a.14.14,0,0,0-.27,0c-.25.72-.47,1.45-.69,2.17a22.76,22.76,0,0,0-1,3.5.16.16,0,0,0,0,.17A60.11,60.11,0,0,0,76,98.9c-.32,6.48.51,13,.6,19.46,0,2.32,0,4.64.06,7,1.14,5.25.49,11.62.45,16.89,0,2.81-.12,5.65-.14,8.49a46.36,46.36,0,0,0,.66,5.5c2,10.81,9.57,19.28,19.17,24.26,2.39,1.24,16.9,11.41,32.52,10.24,9.14-3.27,17.24-9.29,25.57-14.71a37.62,37.62,0,0,0,9.06-8.78,35.09,35.09,0,0,0,5.18-12.62c.26-1.24.46-2.49.63-3.74A219.5,219.5,0,0,1,171,127.92s0,.06,0,.09c0-.45.06-.89.1-1.34C171.57,120.73,173,115.15,172.73,109.13Zm-12.27,53.46c-4,5.95-9.42,10.56-15.12,14.84-5.94,4.46-12.84,9.19-20.49,9.76s-15.31-2.66-21.76-6.35c-6.3-3.6-13.06-8.2-17.45-14.09-8.09-10.86-7.84-26.32-4.56-38.88a.61.61,0,0,1,1.18,0,34.52,34.52,0,0,0,1.78,4.5c0-11,9.07-19,18.09-24.53a169.86,169.86,0,0,1,17.62-9.39c4-1.84,8.18-3.58,11.74-6.2s5.8-6.47,8.8-9.82a.61.61,0,0,1,1,.27c1.11,6.64,2.57,13.34,5.77,19.33s7.43,11,11.2,16.46c4.57,6.61,8.31,13.83,8.26,22.07C166.49,148.22,164.79,156.16,160.46,162.59Z" transform="translate(-17.82 -27.03)"/><path class="cls-41" d="M172.73,109.13a159.9,159.9,0,0,0-1.6-16.47c-.08-4.36-.22-9.1-2.72-12.76-2.63-3.85-7.26-6.24-11.36-8.14C146,66.63,134.13,64.18,122,63.29c-9.82-.72-18.92.26-27.81,4.76C88,71.16,82.52,76,79.46,82.11a.14.14,0,0,0-.27,0c-.25.72-.47,1.45-.69,2.17a22.76,22.76,0,0,0-1,3.5.16.16,0,0,0,0,.17A60.11,60.11,0,0,0,76,98.9c-.32,6.48.51,13,.6,19.46,0,2.32,0,4.64.06,7,1.14,5.25.49,11.62.45,16.89,0,2.81-.12,5.65-.14,8.49a46.36,46.36,0,0,0,.66,5.5c2,10.81,9.57,19.28,19.17,24.26,3,1.56,15.7,10.43,25.49,10.78,1.76.06,5.22.07,6.9-.52,9.2-3.26,17.33-9.29,25.7-14.73a37.62,37.62,0,0,0,9.06-8.78,35.09,35.09,0,0,0,5.18-12.62c.26-1.24,1.09-5.09,1.26-6.34a156.85,156.85,0,0,1,.52-18.77c0-.09,0-.18,0-.26l0,0c0-.43.07-.85.11-1.27,0,0,0,.06,0,.09,0-.45.06-.89.1-1.34C171.57,120.73,173,115.15,172.73,109.13ZM170.4,124c-1.13,7.8-.65,15.75-1.31,23.6a.42.42,0,0,0,0,.33c-.09.94-.17,1.89-.3,2.83a39.28,39.28,0,0,1-3.8,12.86c-2.38,4.68-6.24,8.19-10.35,11.33a145.18,145.18,0,0,1-12.94,8.46c-4.69,2.84-9.92,6.28-15.38,7-1.71,0-3.38-.29-5.17-.37-9.59-.43-31.95-14-35.92-20-3.53-5.3-6.11-10.44-6.89-16.7-.68-5.52-.44-11.13-.53-16.68-.11-6.47-.08-12.93-.18-19.4-.09-5.89-.83-11.74-.76-17.64A65.37,65.37,0,0,1,78.6,85.63c2.91-7.49,9-13,16.15-16.69,8.33-4.28,17.15-5.18,26.34-4.59a102.86,102.86,0,0,1,33.46,7.55c4.26,1.77,8.52,3.94,11.78,7.25,4,4.06,3.09,9.77,4.07,14.89a.29.29,0,0,0,.16.22c.37,4,.86,8,1.12,12C172.05,112.34,171.28,118,170.4,124Z" transform="translate(-17.82 -27.03)"/><path class="cls-44" d="M205.3,166a181.57,181.57,0,0,0-7.12-20.51,104.18,104.18,0,0,1-4-10.87c-4.73-13.79-5.92-28.19-8.45-42.67a78.61,78.61,0,0,0-6.92-22,37.07,37.07,0,0,0-7-8.69c-2-1.75-4-3.39-6-5.12l-2.07-1.23a36.58,36.58,0,0,0-17.63-4.19,48,48,0,0,0-14.31-4.49c-8.34-1.16-16.9-.29-25.07,1.55C94.37,50.6,83.05,57.52,73.78,66.15,72.3,67.52,70.9,69,69.54,70.49a52.48,52.48,0,0,0-3.33,5.64c-1.64,3.52-3.06,7.19-4.45,10.82-.06.17-.12.34-.19.51-.65,3.17-1.81,6.22-2.25,9.44a92,92,0,0,0-.94,13.57c0,3.78.18,7.55.24,11.32a74.88,74.88,0,0,1-.06,13.47c-.24,2.21-.61,4.39-1.06,6.56a53.41,53.41,0,0,1-1.59,8.92c-1.06,3.45-2.43,6.8-3.64,10.19a2,2,0,0,1-.09.26c-2.59,9.59-3.63,18.91-.54,28.61.22.57.45,1.12.69,1.67,3.72,7,10.14,12.73,18.2,11.62-3.58-.85-6.28-3.39-8.61-6.2s-3.25-6.07-3.86-9.43A20.33,20.33,0,0,0,66.71,198a27.63,27.63,0,0,0,23.46,1.44,24.49,24.49,0,0,0,2.51,1c4,.65,7.93,1.27,12.08.77a25.4,25.4,0,0,0,8.39-2.64c-.75-.21-1.46-.41-2.09-.56a35.33,35.33,0,0,1-16.89-9.89A55.4,55.4,0,0,1,83,171,65.81,65.81,0,0,1,79,159.52,44.37,44.37,0,0,1,77.67,155c-5.11.64-7.42-14.94-8-19.09,1.15-3,2.69-6.78,4.1-10.11.49,1.61,1,3.23,1.52,4.88.17,1.41.43,2.83.73,4.24.07,1,.11,2,.17,3,.53,2.57,1.06,5.14,1.41,7.74a.71.71,0,0,0,.2-.43c.21-7,.4-14.3,2-21.16a20.8,20.8,0,0,1,1-3,10.41,10.41,0,0,0,1.63,5.72c.29.43,1.09-.36.92-.77a5.89,5.89,0,0,1-.21-.59.8.8,0,0,0,.31-.38c4.7-17.71,26.8-23.28,41-31.18,6.1-3.4,14.11-9.09,17.87-16.06-.06.19-.11.38-.17.57a35.94,35.94,0,0,0,1.06,5.44,51.07,51.07,0,0,0,1.85,5.34,101.07,101.07,0,0,0,7.46,17.17c6,11.1,14.36,18.93,14.44,32.24,0,.62,2-4.5,2.34-6.67,0,.12,0,.24,0,.37.18,1,.34,1.92.49,2.9a38.42,38.42,0,0,1,2-4.92c.16-.5.32-1,.48-1.46a.64.64,0,0,0,.2-.16h0a11.74,11.74,0,0,1,.89-1.09.62.62,0,0,1,.6-.26,1.8,1.8,0,0,0,.19.2.41.41,0,0,0,.25.11s.07.06.1.11,0,.08.07.12c.14.59.29,1.18.4,1.75.19.93.37,1.85.56,2.77.06.52.13,1,.17,1.58.41,5.5.1,20.06-7,22h0a.84.84,0,0,0-.46.37.76.76,0,0,0-.17.44A69.54,69.54,0,0,1,157.06,178c-5.24,7-13.64,14.94-22.62,16.36-.37.06-1,.65-.75,1.08,2.56,4.42,9.55,3.86,14.4,3.17a32.5,32.5,0,0,0,14.4-3.78l-.41.58a16.1,16.1,0,0,1-2.49,1.38c-.44.2-1.39,1.36-.53,1.67,5.15,1.89,10.66.95,15.69-1.26-.28.29-.56.58-.83.89a1.62,1.62,0,0,0-.3.55c8.07.84,16.53-.81,22.88-5.48a27.78,27.78,0,0,0,6.59-9.3,22.6,22.6,0,0,0,1-2.49.14.14,0,0,1,0-.06c0-.07,0-.15.07-.23.07-.24.15-.49.22-.74A33.89,33.89,0,0,0,205.3,166Z" transform="translate(-17.82 -27.03)"/><path class="cls-45" d="M203,179.75a25.5,25.5,0,0,1-1.18,2.8l-.27.55c-.14.28-.27.56-.43.83a42.4,42.4,0,0,1-2.57,4.18,19.25,19.25,0,0,1-6.39,5.7,21,21,0,0,1-3.81,1.85,27.12,27.12,0,0,1-11.91,2.41.54.54,0,0,1-.3-.1l0,0,0,0a.6.6,0,0,1,0-1,21.76,21.76,0,0,0,5.32-4.41c-6,3.59-12.82,5.82-19.87,5.45a.61.61,0,0,1-.43-1c1.91-1.8,4-3.35,5.87-5.24a26.77,26.77,0,0,0,3.22-3.51c-.12.08-.23.17-.34.26a1.42,1.42,0,0,1,.13-.12.69.69,0,0,0,.15-.21,49.37,49.37,0,0,1-15.11,7.46c-5.25,1.58-14.78,5-19.36.29a.62.62,0,0,1,.28-1c10-3.3,18.62-10.68,24.43-19.39,2.77-4.16,6.1-8.9,7.06-13.89.25-1.28.39-3.38,1.44-4.37,0-.1,0-.2.05-.31,2.87-.49,4.65-3.54,5.83-6.64a86.54,86.54,0,0,0,2-11.42c.35,2,.66,4,.9,6.06A85.49,85.49,0,0,1,176,174.41c2.31-4.71,2.55-10.47,3.15-15.56a93.48,93.48,0,0,0,.43-13.27,99.43,99.43,0,0,0-2.12-12.38c-.16-.72-.41-1.51-.68-2.32a12.83,12.83,0,0,0-1.34-3.92,14.37,14.37,0,0,1-.83-4.64c.18-.56.38-1.12.54-1.68a.22.22,0,0,1,0-.08c.07-.29.13-.59.21-.88a55.83,55.83,0,0,0,1.3-6.14c.14-5.83-.11-11.65-2-17.27-1-3.15-2.45-6.12-3.77-9.15-.26-.6-.55-1.3-.87-2,2.11,6.49,4.8,12.5,5.48,19.49.86,8.87-2.38,16.83-4.6,25.2-.05.16,0,.24.08.27a.6.6,0,0,1-.85-.39c-.11-.6-.23-1.19-.35-1.78.8-7.95,0-16.15-3.44-23.24.12.3.25.6.36.91a56.29,56.29,0,0,1,2.37,8.47c1,5.66-1.16,18.7-1.3,19.66a25.17,25.17,0,0,0-2.81-9.47c-3.19-6.63-7.64-12.52-11.32-18.87a72.38,72.38,0,0,1-7.85-15.84c-1.17-3.55-2.57-7.39-3-11.12a17.54,17.54,0,0,1,.61-5.53,22.11,22.11,0,0,1-1.33,2.44c-3.12,6.18-9.37,11.21-14.73,14.94-6.93,4.82-14.87,8.18-22.31,12.11-9,4.79-19.63,11.28-22.29,21.86-.76-4.08.72-9.46,2.06-12.91a35.45,35.45,0,0,1,3.18-6.11,37.59,37.59,0,0,1,2.71-4.63,62.06,62.06,0,0,1,4-5.77,65.22,65.22,0,0,0-6.76,7.7,41,41,0,0,0-6.68,13.89c-.53,1-1.06,2.08-1.54,3.14-.87,3.68-1.59,7.41-2.23,11.17a.61.61,0,0,1-1.18,0c-1.38-6.18-4.34-11.74-4.59-18.18a66.53,66.53,0,0,1,.21-9.78,21.93,21.93,0,0,1,.82-3.34c-1.23,2.37-1.56,5.43-1.63,8.33A42.09,42.09,0,0,0,73,123.06c-1.32,3.15-2.62,6.31-3.85,9.49-.65,2.83-1.39,5.65-2.09,8.47-1,4.11-2.45,9.14-1.93,13.64a80.24,80.24,0,0,1,1.4-8.35A65.93,65.93,0,0,1,69,136.88c.27,5.55,3.34,21.17,8.13,19.46a72.32,72.32,0,0,0,6.11,17.58,58,58,0,0,0,5.24,9.57,73.44,73.44,0,0,0,5.27,5.91c3.61,3.65,7.8,7.2,12.84,8.59a.56.56,0,0,1,.4.36,26.73,26.73,0,0,0,3.22.85,30.42,30.42,0,0,1-11,.6c-6.77-.45-14.37-4.69-18.65-8.73a27.29,27.29,0,0,1-3.66-4.28,31.58,31.58,0,0,0,3.81,5.83,20.32,20.32,0,0,0,6.54,5.12c.34.24.68.47,1,.69a29.84,29.84,0,0,1-9.77.35,25.19,25.19,0,0,1-22-14.59c.36,5.1.68,9.62,4,14.05a25.93,25.93,0,0,0,2.63,3c-7-3.14-10.27-11.38-11.59-19a41.54,41.54,0,0,1,.5-15.11c.1-.83.22-1.67.37-2.49a51.07,51.07,0,0,1,2.44-8.35.24.24,0,0,1,0-.08c.83-2.79,1.69-5.55,2.45-8.26,3.62-12.93,3.1-24.93,2.21-38.15A59.56,59.56,0,0,1,63.1,85.47c.44-1.23,3.5-7.63,4.82-11.1.26-.33.54-.65.81-1,1.61-2.9,4.43-5.4,6.77-7.38.37-.32.77-.6,1.15-.91a72.37,72.37,0,0,1,29.9-15.83,67.77,67.77,0,0,1,16.09-2.05,29.65,29.65,0,0,1,11.31.45,89.75,89.75,0,0,1,15.83,4.84c-.47-.25-.93-.5-1.4-.73.31,0,.61.07.92.13,8.85.93,16.64,5.33,23.93,11.72.49.73,1,1.48,1.42,2.23a24.87,24.87,0,0,1,2.06,2.77A49.55,49.55,0,0,1,183.26,86c2.15,7.7,3,16,4.13,23.78.61,4,1.17,8,1.83,12,1.58,5.53,3.51,10.93,5.44,16.42,1.62,4.59,3.4,9.21,4.91,13.87C203.71,160.79,206.19,170.54,203,179.75Z" transform="translate(-17.82 -27.03)"/><path class="cls-46" d="M199.57,152c-1.51-4.66-3.29-9.28-4.91-13.87-1.93-5.49-3.86-10.89-5.44-16.42-.66-4-1.22-8-1.83-12-1.17-7.79-2-16.08-4.13-23.78a49.55,49.55,0,0,0-6.55-17.34,24.87,24.87,0,0,0-2.06-2.77c-.45-.75-.93-1.5-1.42-2.23-7.29-6.39-15.08-10.79-23.93-11.72-.31-.06-.61-.1-.92-.13.47.23.93.48,1.4.73A89.75,89.75,0,0,0,134,47.67a29.65,29.65,0,0,0-11.31-.45c-2.16,0-4.32.17-6.47.39,8.59-.4,17.75.47,25,5-1.8,0-3.61,0-5.32,0a152.82,152.82,0,0,0-15.43.74c-7.13.68-14.14,2.18-20.11,5.92a39.52,39.52,0,0,1,4.23-1.39,68.92,68.92,0,0,1,14.67-2.14c4.07-.47,8.18-.67,12.27-.81,1.24.13,2.47.3,3.71.54.95.19,1.94.39,2.93.62a36.73,36.73,0,0,0-5.2,3.24,29.41,29.41,0,0,1,3.79-1.49c3.4-1.11,7.37-2.4,11-2.2,5.83.32,11.32,5.79,14.49,11.2a40.41,40.41,0,0,0-5.06-7.7.61.61,0,0,1,.74-1,40.2,40.2,0,0,1,10.69,8.26c8,6.82,13.06,17.41,15.12,27.48,1.67,8.17,1.53,16.51,2.76,24.73.88,6,2.31,11.79,3.6,17.66l1.44,4.36c.28.85.56,1.7.83,2.56,3.3,7.43,7.24,14.66,8,22.81.54,5.64,0,11.57-2.73,16.63-2,3.67-5,8.23-9.46,8.83-.44.06-.88-.26-.75-.74a63.15,63.15,0,0,0,2.38-15.44,23.33,23.33,0,0,1-1.86,4.6c-3.3,6.14-9.4,12.51-16.15,14.68a.61.61,0,0,1-.69-.89c1.55-2.27,3.63-3.93,5.6-5.83a18.4,18.4,0,0,0,4.63-7.3c.18-.52.34-1,.5-1.56-2.27,3.83-5.31,6.9-9.43,8.06a.62.62,0,0,1-.59-1c6.7-6.24,9.2-16.13,10.17-24.94,1.2-10.91-.54-21.68-3.21-32.25a.62.62,0,0,1,1.13-.46c2,2.94,3.6,6.11,5.34,9.2-.38-1.24-.77-2.49-1.17-3.73A74.82,74.82,0,0,1,180,123.3c-1.74-6.18-1.65-12.47-2.41-18.8a57.63,57.63,0,0,0-6.41-21.17c-2-3.62-4.91-6.5-7.75-9.45a60.67,60.67,0,0,1,5,11.74,57.94,57.94,0,0,1,4,30.2c0,.05,0,.1,0,.16-.11.74-1.14.47-1.21-.16a33.15,33.15,0,0,0-1-5.11.51.51,0,0,1-.25-.38c-.08-.54-.2-1.06-.31-1.59-1.68-5.34-4.38-10.34-7-15.34a49.35,49.35,0,0,1,1.38,10.87.58.58,0,0,1-.68.59c-.48-1.49-1-3-1.49-4.42s-1.15-3.38-1.83-5.12c-.9-1.29-1.82-2.56-2.78-3.8,2.36,6.46,3.95,13.13,5.9,19.69.11.87.2,1.75.27,2.63.05.59-.67.72-1,.43-3-2.36-4.75-5.89-6.3-9.29-.74-1.62-1.53-3.21-2.33-4.81a72.07,72.07,0,0,1-10-30.66c-5.16,5.84-10.3,11.72-16.27,16.75-6.5,5.47-14.1,10.43-22.88,10.49a.6.6,0,0,1-.57-.5c.93-.91,1.82-1.86,2.69-2.8.55-.59,1.12-1.17,1.67-1.77C115.33,86.23,121.69,80,126,73c.22-.35-.19-.41-.38-.16a67.85,67.85,0,0,1-11,10.41c-2.49,1.74-4.87,3.7-7.29,5.47-2.74,2-5.57,4.11-9,4.5a.62.62,0,0,1-.53-.92c2.61-3.67,6.58-6.55,10.16-9.4-4.26,2.25-8.67,4.37-12.56,7.23a32.53,32.53,0,0,0-5.79,5.2A31.83,31.83,0,0,1,85.2,100a29.29,29.29,0,0,1,3.34-7.35c3-4.65,7.42-8.16,11.84-11.43.21-.16.26-.67-.11-.48A44.34,44.34,0,0,0,85.72,93.29a36.91,36.91,0,0,0-10.3,19.94C72,87.36,93.82,71.72,116,64.56c-1.44.23-2.88.47-4.3.8a68.57,68.57,0,0,0-11.23,3.76c-1,.44-2.06.92-3.09,1.4a70.09,70.09,0,0,0-10.43,6.87c-7.46,5.93-13.82,13.4-16.52,22.7-2.75,9.46-.6,19.32-3.31,28.76-2.84,9.91-5.16,19.35-4,29.76a80.89,80.89,0,0,0,8.83,28.17.61.61,0,0,1-1,.74c-8.83-7.4-12.71-17.82-13.16-28.94-1.63,5.95-1.64,12.17-2.28,18.33a.61.61,0,0,1-1.2.16c-1.92-5.47-1.24-11.35-.45-17,0-.32.08-.63.13-.95a41.16,41.16,0,0,0-1.47,5.55c-.15.82-.27,1.66-.37,2.49a41.54,41.54,0,0,0-.5,15.11c1.32,7.59,4.58,15.83,11.59,19a25.93,25.93,0,0,1-2.63-3c-3.3-4.43-3.62-9-4-14.05a25.19,25.19,0,0,0,22,14.59,29.84,29.84,0,0,0,9.77-.35c-.37-.22-.71-.45-1-.69a20.32,20.32,0,0,1-6.54-5.12,31.58,31.58,0,0,1-3.81-5.83A26.58,26.58,0,0,0,79,189.38c-5-7.46-6.91-16.24-7.55-25.49,0-.71,1-.81,1.2-.15,1.85,6.75,4,13.67,8,19.46,2.21,3.14,4.5,6.58,7.73,8.76,1.74,1.18,3.67,2.33,4.61,4.29a.61.61,0,0,1-.53.91,16.36,16.36,0,0,1-4.18-.73,28.59,28.59,0,0,0,10.92,3.37,30.42,30.42,0,0,0,11-.6,26.73,26.73,0,0,1-3.22-.85.56.56,0,0,0-.4-.36c-5-1.39-9.23-4.94-12.84-8.59a73.44,73.44,0,0,1-5.27-5.91,58,58,0,0,1-5.24-9.57,72.32,72.32,0,0,1-6.11-17.58c-4.79,1.71-7.86-13.91-8.13-19.46a65.93,65.93,0,0,0-2.46,9.43,80.24,80.24,0,0,0-1.4,8.35c-.52-4.5.91-9.53,1.93-13.64.7-2.82,1.44-5.64,2.09-8.47,1.23-3.18,2.53-6.34,3.85-9.49a42.09,42.09,0,0,1-1.75-15.35c.07-2.9.4-6,1.63-8.33a21.93,21.93,0,0,0-.82,3.34,66.53,66.53,0,0,0-.21,9.78c.25,6.44,3.21,12,4.59,18.18a.61.61,0,0,0,1.18,0c.64-3.76,1.36-7.49,2.23-11.17.48-1.06,1-2.1,1.54-3.14a41,41,0,0,1,6.68-13.89,65.22,65.22,0,0,1,6.76-7.7,62.06,62.06,0,0,0-4,5.77,37.59,37.59,0,0,0-2.71,4.63,35.45,35.45,0,0,0-3.18,6.11c-1.34,3.45-2.82,8.83-2.06,12.91,2.66-10.58,13.25-17.07,22.29-21.86,7.44-3.93,15.38-7.29,22.31-12.11,5.36-3.73,11.61-8.76,14.73-14.94a22.11,22.11,0,0,0,1.33-2.44,17.54,17.54,0,0,0-.61,5.53c.43,3.73,1.83,7.57,3,11.12a72.38,72.38,0,0,0,7.85,15.84c3.68,6.35,8.13,12.24,11.32,18.87a25.17,25.17,0,0,1,2.81,9.47c.14-1,2.34-14,1.3-19.66a56.29,56.29,0,0,0-2.37-8.47c-.11-.31-.24-.61-.36-.91,3.41,7.09,4.24,15.29,3.44,23.24.12.59.24,1.18.35,1.78a.6.6,0,0,0,.85.39c-.08,0-.13-.11-.08-.27,2.22-8.37,5.46-16.33,4.6-25.2-.68-7-3.37-13-5.48-19.49.32.73.61,1.43.87,2,1.32,3,2.73,6,3.77,9.15,1.85,5.62,2.1,11.44,2,17.27a55.83,55.83,0,0,1-1.3,6.14c-.08.29-.14.59-.21.88a.22.22,0,0,0,0,.08c-.16.56-.36,1.12-.54,1.68a14.37,14.37,0,0,0,.83,4.64,12.83,12.83,0,0,1,1.34,3.92c.27.81.52,1.6.68,2.32a99.43,99.43,0,0,1,2.12,12.38,93.48,93.48,0,0,1-.43,13.27c-.6,5.09-.84,10.85-3.15,15.56a85.49,85.49,0,0,0,1.64-29.53c-.24-2-.55-4-.9-6.06a86.54,86.54,0,0,1-2,11.42c-1.18,3.1-3,6.15-5.83,6.64,0,.11,0,.21-.05.31-1,1-1.19,3.09-1.44,4.37-.77,4-3,7.81-5.35,11.31a33.26,33.26,0,0,0,7-11.12c.25-.74,1.42-.44,1.18.31-1,3.1-1.44,6.43-2.73,9.42a30.68,30.68,0,0,1-4.84,7.59c-.37.64-.73,1.29-1.05,2,3.79-2,6.24-6.36,9-9.48a.61.61,0,0,1,1,.58c-2.79,10.3-8.93,19.2-19.36,22.72a.61.61,0,0,1-.68-.89,56.94,56.94,0,0,1,4.89-6.76,25.05,25.05,0,0,1-6.8,2.92h-.14c-.78.48-1.56,1-2.34,1.4a36,36,0,0,1-11,4l-.62.11a.69.69,0,0,0,.1.19c4.58,4.69,14.11,1.29,19.36-.29a49.37,49.37,0,0,0,15.11-7.46.69.69,0,0,1-.15.21,1.42,1.42,0,0,0-.13.12c.11-.09.22-.18.34-.26a26.77,26.77,0,0,1-3.22,3.51c-1.84,1.89-4,3.44-5.87,5.24a.61.61,0,0,0,.43,1c7,.37,13.86-1.86,19.87-5.45a21.76,21.76,0,0,1-5.32,4.41.6.6,0,0,0,0,1l0,0,0,0a.54.54,0,0,0,.3.1,27.12,27.12,0,0,0,11.91-2.41,21,21,0,0,0,3.81-1.85,19.25,19.25,0,0,0,6.39-5.7,42.4,42.4,0,0,0,2.57-4.18c.16-.27.29-.55.43-.83l.27-.55a25.5,25.5,0,0,0,1.18-2.8C206.19,170.54,203.71,160.79,199.57,152Z" transform="translate(-17.82 -27.03)"/><path class="cls-47" d="M80.74,192.62a31.58,31.58,0,0,1-3.81-5.83A26.58,26.58,0,0,0,79,189.38a44.27,44.27,0,0,1-6.67-17.8c-.42-1.29-.8-2.6-1.1-3.94a63,63,0,0,1-1.61-10.8c-2,14.07,1.78,29.14,11.73,39.43a.62.62,0,0,1-.59,1c-10.39-1.45-22.66-8.74-25.81-18.91a22.92,22.92,0,0,0-.23,10.05,19.07,19.07,0,0,0,3.45,7.44,19.6,19.6,0,0,0,4.26,4.57,28.1,28.1,0,0,1-1.85-2.2c-3.3-4.43-3.62-9-4-14.05a25.19,25.19,0,0,0,22,14.59,29.84,29.84,0,0,0,9.77-.35c-.37-.22-.71-.45-1-.69A20.32,20.32,0,0,1,80.74,192.62Z" transform="translate(-17.82 -27.03)"/><path class="cls-48" d="M107,198.35a.56.56,0,0,0-.4-.36c-5-1.39-9.23-4.94-12.84-8.59a73.44,73.44,0,0,1-5.27-5.91,58,58,0,0,1-5.24-9.57,72.32,72.32,0,0,1-6.11-17.58l-.1,0c-.61,7.44,1.57,15.08,5.23,21.62a52.35,52.35,0,0,0,8.23,11.41,94.49,94.49,0,0,0,9.64,7.84.62.62,0,0,1-.15,1.12,13.92,13.92,0,0,1-10.24-1.56,13.44,13.44,0,0,1-1.42-.37,28.59,28.59,0,0,0,10.92,3.37,30.42,30.42,0,0,0,11-.6A26.73,26.73,0,0,1,107,198.35Z" transform="translate(-17.82 -27.03)"/><path class="cls-49" d="M141.94,75.75c-5,7.16-12.86,12.81-20.41,16.32C110,97.43,96.63,98.88,88.2,109.39c-.39.48-1.19,0-1-.59a40.24,40.24,0,0,1,4.19-9.1c-.18.29-.38.56-.56.85a37.59,37.59,0,0,0-2.71,4.63,35.45,35.45,0,0,0-3.18,6.11c-1.34,3.45-2.82,8.83-2.06,12.91,2.66-10.58,13.25-17.07,22.29-21.86,7.44-3.93,15.38-7.29,22.31-12.11C132.69,86.59,138.75,81.72,141.94,75.75Z" transform="translate(-17.82 -27.03)"/><path class="cls-50" d="M199.57,152c-1.51-4.66-3.29-9.28-4.91-13.87-1.24-3.54-2.48-7-3.63-10.57a72.65,72.65,0,0,0,2.1,11.12c2.44,8.85,7.41,16.89,9.35,25.89,2.66,12.38-6.25,28.06-19.33,30.24-.56.09-1.06-.57-.59-1a20.26,20.26,0,0,0,4.73-7.86,28,28,0,0,1-6.53,5.51c-4.34,2.61-10.62,5.35-15.77,4.59a.61.61,0,0,1-.46-.59c0-.81.87-1.06,1.41-1.56a22,22,0,0,0,3.34-3.8,27.06,27.06,0,0,0,2.89-5.44,122.41,122.41,0,0,1-10.47,6.52,41.37,41.37,0,0,1-9.2,3.58l-.18.07a.51.51,0,0,1-.17,0c-2.42.63-4.89,1.12-7.4,1.52-2.8.45-6.58,1.12-9.07-.61,0,0,0,.05,0,.07,4.58,4.69,14.11,1.29,19.36-.29a49.37,49.37,0,0,0,15.11-7.46.69.69,0,0,1-.15.21,1.42,1.42,0,0,0-.13.12c.11-.09.22-.18.34-.26a26.77,26.77,0,0,1-3.22,3.51c-1.84,1.89-4,3.44-5.87,5.24a.61.61,0,0,0,.43,1c7,.37,13.86-1.86,19.87-5.45a21.76,21.76,0,0,1-5.32,4.41.6.6,0,0,0,0,1l0,0,0,0a.54.54,0,0,0,.3.1,27.12,27.12,0,0,0,11.91-2.41,21,21,0,0,0,3.81-1.85,19.25,19.25,0,0,0,6.39-5.7,42.4,42.4,0,0,0,2.57-4.18c.16-.27.29-.55.43-.83l.27-.55a25.5,25.5,0,0,0,1.18-2.8C206.19,170.54,203.71,160.79,199.57,152Z" transform="translate(-17.82 -27.03)"/><path class="cls-51" d="M158.61,112a117.58,117.58,0,0,1-7.84-13.13,70.12,70.12,0,0,1-7.51-24.77,13.93,13.93,0,0,0-.35,4.27c.43,3.73,1.83,7.57,3,11.12a72.38,72.38,0,0,0,7.85,15.84c3.68,6.35,8.13,12.24,11.32,18.87a25.17,25.17,0,0,1,2.81,9.47c.14-1,2.34-14,1.3-19.66a52.37,52.37,0,0,0-1.59-6.15c-.46-.81-.95-1.62-1.44-2.42.43,1.45.85,2.89,1.16,4.37a31.15,31.15,0,0,1-.06,12.72.61.61,0,0,1-1,.27,19.41,19.41,0,0,1-3.48-4.73C161.45,116,160,114,158.61,112Z" transform="translate(-17.82 -27.03)"/><path class="cls-48" d="M171.09,118.41a22.46,22.46,0,0,0-3-9.61,46.27,46.27,0,0,1,1.8,19.08c.12.59.24,1.18.35,1.78a.6.6,0,0,0,.85.39c-.08,0-.13-.11-.08-.27,2.22-8.37,5.46-16.33,4.6-25.2,0-.2-.06-.38-.08-.57a35,35,0,0,1-3.31,14.71C172,119.3,171.12,119,171.09,118.41Z" transform="translate(-17.82 -27.03)"/><path class="cls-52" d="M94,95.63c.91-1.34,1.85-2.67,2.79-4-10.33,7.08-19.13,16.23-20,29.22,0,.47-.67.87-1,.43-2.74-3.33-3.48-8.4-3.95-12.68,0,1.3,0,2.6.07,3.89.25,6.44,3.21,12,4.59,18.18a.61.61,0,0,0,1.18,0c.64-3.76,1.36-7.49,2.23-11.17.48-1.06,1-2.1,1.54-3.14a41,41,0,0,1,6.68-13.89A63.39,63.39,0,0,1,94,95.63Z" transform="translate(-17.82 -27.03)"/><path class="cls-53" d="M119.56,58.67A63.41,63.41,0,0,0,86.5,70.19C80.17,74,73.31,82.59,73.56,82c4.36-10.59,13.77-18.36,23.6-23.75a70.16,70.16,0,0,1,16.56-6.82A118.76,118.76,0,0,1,127.18,49a48.1,48.1,0,0,0-10.64.49A64.08,64.08,0,0,0,70.46,75.89a47.55,47.55,0,0,0-6.58,12.86c-2.05,8.7-2.19,17.83-2,26.82.13,7.6,1.42,15.55.18,23.05.29-.76.56-1.53.83-2.29,1.11-5.63.83-11.22.86-17.51a125.08,125.08,0,0,1,1.15-15.47,54,54,0,0,0,.75,13.75c.14.64.94,0,1-.42C67.08,103,71.24,88,81.16,78.08c11.29-11.28,27.58-15.66,42.68-18.55a.66.66,0,0,0,.32-.21C122.64,59,121.1,58.82,119.56,58.67Z" transform="translate(-17.82 -27.03)"/><path class="cls-53" d="M157.93,98l0-.14c-1.84-6.34-2.53-12.61-3.44-19.12,1.63,3.75,3.13,8.05,6.38,10,.35.21.76-.3.83-.58a12,12,0,0,0,.32-3.73c2.29,5.12,4.08,10.4,6.29,15.57-1.33-7.15-2.45-14.42-4.72-21.3A43.49,43.49,0,0,0,157,66.4c-1.5-2-3.23-5.31-5.71-6.41,3.37,5.25,6.62,11.27,6.7,17.43a.61.61,0,0,1-1,.43c-2-1.88-3.08-4.31-4.22-6.73,0,2.84.05,5.69.17,8.53,0,.73-1,.78-1.2.16a48.2,48.2,0,0,1-2.15-9.57c-.18-1.41-.25-2.91-.4-4.39-.13-.8-.24-1.58-.33-2.31a13.67,13.67,0,0,0-.44-1.7,1.59,1.59,0,0,0-2.12-1.14c-.47.34-.87.69-1,.77q-1.79,1.52-3.6,3c-1.56,1.26-3,2.59-4.59,3.87-.77.65-3.74,3.63-4.77,1.88s1-4,1.94-5.17c1.4-1.8,3.2-3.42,4.66-5.22a68.44,68.44,0,0,0-8.9,4.78c-2.28,1.34-4.65,2.92-7.35,3.14a.61.61,0,0,1-.43-1c.56-.44,4.35-3,7.24-5-.91.28-1.84.53-2.77.76a92.63,92.63,0,0,1-9.85,3.58A78.52,78.52,0,0,0,109,69.27a70.79,70.79,0,0,0-11.29,6.18,70.78,70.78,0,0,0-10.54,8,42.65,42.65,0,0,0-4.36,6.42,32,32,0,0,1,5.89-4.73,92.91,92.91,0,0,1,8.26-5,117.38,117.38,0,0,1,16.78-8.31l2.83-1.21c-5,3.44-9.64,7.5-14.56,11a1.32,1.32,0,0,0-.49,1.14,32,32,0,0,0,6.41-1.87l2.39-.83c2-1,4-2.17,5.91-3.3,4.29-1.92,8.09-4.92,12.26-7.1,2.66-1.39-.84,4.3-.68,4.1-1,1.39-2,2.86-3,4.31a97.91,97.91,0,0,1-8.28,10.23,1.19,1.19,0,0,0-.2.39,17,17,0,0,0,2-.49,28.33,28.33,0,0,0,5.1-2.27,83.45,83.45,0,0,0,8-7,37,37,0,0,0,2.74-2.87,75.54,75.54,0,0,0,6.17-6,75.21,75.21,0,0,0,5.49-6.09c-.54,4.45.63,9.93,1.48,13.48,2.06,8.56,5.65,17.87,11,24.93.19.25.54.05.73-.23A33,33,0,0,1,157.93,98Z" transform="translate(-17.82 -27.03)"/><path class="cls-53" d="M62.39,167.93a42.93,42.93,0,0,1-1-10.17,72.27,72.27,0,0,0,0-11c-2,12.14-2.82,25.23,5.85,35.21.19.22.56,0,.74-.24A41.25,41.25,0,0,1,62.39,167.93Z" transform="translate(-17.82 -27.03)"/><path class="cls-53" d="M192,146.17c-2.12-6-4.21-12.21-6.07-18.55-.2-1-.37-2.08-.54-3.13A125.85,125.85,0,0,1,183,108.15c-.14-1.77-.28-3.55-.43-5.32-.48-3.57-1-7.14-1.78-10.69a42.86,42.86,0,0,0-6.55-15.42,45.61,45.61,0,0,0-5.53-6.34,61.53,61.53,0,0,1,10.07,22.51,90.24,90.24,0,0,1,1.61,18.27c0,1.41,0,2.82,0,4.24a200.73,200.73,0,0,0,7.36,27.3c.73,3.24,1.53,6.39,2.06,9.58-1.07-5.33-3.57-10.35-5.94-15.3-.34-.47-2.34-3.45-2.7-3.92a68.37,68.37,0,0,1,4.43,23.05,59.78,59.78,0,0,1-4.82,23.59,42.77,42.77,0,0,0,6.88-10c-.33,2.56-.78,5.18-1.25,8a14.72,14.72,0,0,0,3.08-3.42.6.6,0,0,1,.71-.24,25.12,25.12,0,0,0,2.21-6.82c1,5.55.3,11.27.28,16.89a14.69,14.69,0,0,0,4.18-7.06C198.84,166.84,195.32,155.62,192,146.17Z" transform="translate(-17.82 -27.03)"/><path class="cls-53" d="M88.8,194.48c-9.86-6.06-13.21-16.27-16.09-26.93,0-.16-.32,0-.31.17,1.59,11,4.91,22.7,16.07,27.23C88.7,195.05,89.05,194.63,88.8,194.48Z" transform="translate(-17.82 -27.03)"/><path class="cls-54" d="M266.77,119.14c2.77,1.14,5.77,1.06,8.66,1.59,37.31,6.77,64.58,27.1,81.55,60.92,10.61,21.15,13.41,43.62,9.48,66.93a108,108,0,0,1-20.6,47.7c-.73,1-1.87,1.76-1.76,3.21-5,4.07-8.64,9.52-13.71,13.55-1.14.9-2.59,1.69-3.11,3.26-1.12-.18-1.78.65-2.52,1.22a106.27,106.27,0,0,1-43.82,20.32c-23.82,5-47,2.67-69.17-7.47s-39-25.93-51-47a111.61,111.61,0,0,1-13.28-41.73c-.06-.53.14-1.2-.61-1.46V219.78c.74-.28.52-.94.59-1.47,1.3-10.9,3.64-21.6,8.19-31.59,16.61-36.48,44.47-58.79,84.12-66,2.4-.43,5-.21,7.16-1.56ZM159.13,229.94a97.93,97.93,0,0,0,98.46,98.41c56-.3,98.47-44,98.56-98.71.09-54.94-44.36-98.26-98.57-98.38S158.58,175.73,159.13,229.94Z" transform="translate(-17.82 -27.03)"/><path class="cls-54" d="M378.56,316.41c.58.5,1.2,1,1.74,1.5q28.17,28.14,56.33,56.31c6.89,6.89,9.87,15.08,7.19,24.62-5.16,18.36-26.84,24.37-40.7,10.93-19.82-19.22-39.12-39-58.63-58.51a2,2,0,0,1-.28-.5l2.91-2.83,23.67-23.48c.79.85,1.54,1.74,2.36,2.56l55.27,55.29c6,6,6.44,12.41,1.34,19.17-1.23,1.62-1.94,3.29-.21,4.89s3.54,1.18,5.27-.55c6.85-6.86,6.93-19.46-.12-26.54q-28.38-28.53-56.89-56.95c-.81-.82-1.51-1.74-2.27-2.61Z" transform="translate(-17.82 -27.03)"/><path class="cls-55" d="M327.28,316.3c.52-1.57,2-2.36,3.11-3.26,5.07-4,8.71-9.48,13.71-13.55,5.91,5.35,11.45,11.07,16.92,16.86-.06.28,0,.66-.18.82q-7.9,8-15.85,15.87c-.17.17-.55.13-.83.18C338.36,327.76,332.64,322.22,327.28,316.3Z" transform="translate(-17.82 -27.03)"/><path class="cls-56" d="M344.16,333.22c.28-.05.66,0,.83-.18q8-7.91,15.85-15.87c.17-.16.12-.54.18-.82a15.42,15.42,0,0,0,1.34-1c6.11-5.9,10.74-5.59,16.2,1.1l-3,3.3a30.86,30.86,0,0,0-4.75,4.74l-23.67,23.48-2.91,2.83c-5.64-4.62-6.79-9.43-3.26-13.86C342,335.62,343.09,334.44,344.16,333.22Z" transform="translate(-17.82 -27.03)"/><path class="cls-57" d="M159.13,229.94c-.55-54.21,44.29-98.8,98.45-98.68s98.66,43.44,98.57,98.38c-.09,54.73-42.61,98.41-98.56,98.71A97.93,97.93,0,0,1,159.13,229.94Zm189.13-.16c-.15-49.54-39.47-90.6-90.55-90.68a90.68,90.68,0,0,0-.32,181.35C307.43,320.66,348.23,279.89,348.26,229.78Z" transform="translate(-17.82 -27.03)"/><path class="cls-58" d="M370.79,324.45a30.86,30.86,0,0,1,4.75-4.74c.76.87,1.46,1.79,2.27,2.61q28.45,28.47,56.89,56.95c7.05,7.08,7,19.68.12,26.54-1.73,1.73-3.42,2.26-5.27.55s-1-3.27.21-4.89c5.1-6.76,4.65-13.18-1.34-19.17L373.15,327C372.33,326.19,371.58,325.3,370.79,324.45Z" transform="translate(-17.82 -27.03)"/><path class="cls-59" d="M348.26,229.78c0,50.11-40.84,90.88-90.87,90.67a90.68,90.68,0,0,1,.32-181.35C308.79,139.19,348.11,180.24,348.26,229.78Z" transform="translate(-17.82 -27.03)"/></g></g></svg>